<svg width="299" height="28" viewBox="0 0 299 28" fill="none" xmlns="http://www.w3.org/2000/svg">
<path fill-rule="evenodd" clip-rule="evenodd" d="M90.4888 22.5015C89.4022 22.5015 88.5819 22.0996 88.1795 21.375C87.6295 20.3844 87.9955 19.6202 88.2197 18.5673C88.6356 16.6106 89.1914 14.9633 89.7414 13.1292C90.2837 11.3159 90.8932 9.63272 91.5524 7.9779C91.9779 6.91179 92.1082 6.65139 93.1278 6.12683C94.8717 5.22677 100.458 4.96071 100.458 7.32502C100.458 9.45913 98.5149 14.9746 97.7502 17.0879C97.4244 17.9899 96.3895 20.9316 95.7744 21.4222C94.6226 22.3468 92.5394 22.5015 90.4888 22.5015ZM96.6138 0H98.0434C100.705 0.0094346 103.492 0.120763 105.594 1.08875C110.332 3.27192 109.36 6.17966 108.549 10.1931C107.827 13.7613 105.594 21.7656 103.48 24.3035C102.938 24.9545 102.89 24.9375 102.281 25.4772C100.075 27.432 95.713 27.9962 92.7464 27.9962H92.6391H89.4731C84.9081 27.9075 79.3255 27.1452 79.3255 21.8468C79.3255 17.7484 81.951 10.0762 83.4056 6.50232C84.3888 4.08518 85.4275 2.60961 88.1488 1.49255C90.4102 0.566076 93.3328 0 96.4681 0H96.6138ZM39.7298 6.93443V16.8766H34.0169L38.2254 9.37799C38.4956 8.90249 39.3964 7.17596 39.7298 6.93443ZM19.0016 27.6056H27.9034C28.0874 26.8301 30.9104 22.5185 31.0924 21.8486H39.5957V27.6056H47.4359V0.262282H38.9326C36.2151 0.262282 33.6988 3.42287 32.3956 5.47018C28.762 11.1762 24.7988 17.9993 21.2016 23.8865C20.803 24.5375 20.4983 25.0375 20.1054 25.6847C19.8275 26.1452 19.1185 27.1754 19.0016 27.6056ZM50.8912 27.6056H59.13L62.5854 16.3539C63.0089 16.6596 64.1338 19.7032 64.4501 20.407C64.657 20.8693 64.9062 21.4165 65.094 21.8675L67.503 27.6056H75.6076C75.2761 26.9886 75.0614 26.3905 74.7222 25.73L70.1975 16.4483C69.7989 15.5275 68.5072 13.45 68.4324 12.5612C68.9269 12.431 68.9652 12.1989 69.3312 11.8763C69.7011 11.5498 69.8813 11.4668 70.2588 11.0894L78.2964 4.08895C78.6548 3.76252 78.8541 3.67006 79.2278 3.30588C79.8295 2.71528 82.4187 0.66797 82.7828 0.133971C80.5271 0.133971 78.258 0.156614 76.0043 0.132084C74.5574 0.116989 74.9656 0.0452861 73.7831 1.21518C73.4133 1.58124 73.2101 1.66804 72.8498 1.99636C72.5317 2.28506 72.296 2.54168 71.9874 2.84925C70.4926 4.33614 68.1833 6.25136 66.6693 7.68731C66.1768 8.15527 65.4945 9.12137 64.8448 9.29308L66.2228 4.76259C66.4853 3.97574 66.721 3.19833 66.9549 2.47564C67.2059 1.702 67.4493 0.922704 67.6352 0.135858H59.3964C59.176 0.584945 59.0304 1.28688 58.8483 1.81899C58.6701 2.33412 58.4937 2.9568 58.3174 3.52099L52.4876 22.377C52.3305 22.9412 52.1427 23.5488 51.974 24.0941C51.6099 25.2526 51.1748 26.4074 50.8912 27.6056ZM0.132235 26.5584V23.2884C1.25527 24.0299 0.778077 24.7771 1.3281 25.9055C0.870066 26.1433 0.557686 26.2772 0.132235 26.5584ZM0.797241 21.5864C1.50058 21.2203 2.22116 20.775 2.92258 20.4089C4.19127 21.2448 4.40974 21.7581 4.62247 22.66C4.72212 23.0846 4.91568 23.4299 4.91568 23.811C4.91568 24.0167 2.97049 25.0375 2.65619 25.1187C2.61786 24.6564 2.49521 24.4866 2.38981 24.0733C1.89728 22.1392 2.12342 23.5374 0.797241 21.5864ZM0.398621 20.9335C-0.206976 19.69 0.203143 19.7051 1.1537 19.19C1.50058 19.0032 2.07551 18.6616 2.39172 18.5767C2.39172 19.2711 2.39747 19.3485 2.52396 19.8844C1.86087 20.0598 1.06938 20.7788 0.398621 20.9335ZM2.52396 16.8766C2.52396 18.6352 2.41089 18.2446 0.264469 19.3617C0.277885 18.7918 0.396704 18.6484 0.396704 17.922C0.745497 17.7408 1.11154 17.5899 1.45267 17.3936C1.81679 17.1861 2.03527 16.9898 2.52396 16.8766ZM5.97931 17.1389C5.97931 17.6314 6.06747 17.3861 6.11154 17.9238L3.98621 18.9711C3.85972 18.4352 3.85397 18.3578 3.85397 17.6635C4.49981 17.5144 5.48103 16.7558 5.81066 16.7087C6.40284 16.6219 5.97931 16.9389 5.97931 17.1389ZM11.8264 15.569C12.5968 15.1671 13.3174 14.7916 14.0859 14.3915L15.0039 15.4501C15.6056 15.9935 15.575 16.1766 15.6995 16.8577C15.7915 17.3615 15.9333 17.4672 15.9467 18.054C15.0403 18.2616 14.5113 18.9126 13.6873 19.1013C12.8191 15.435 12.8134 17.42 11.8264 15.569ZM6.11346 16.2218L3.98621 17.3993C3.98621 15.6577 4.1836 15.8577 6.2457 14.7821C6.2457 15.4463 6.11346 15.4973 6.11346 16.2218ZM0.132235 17.2691V15.9615C0.607513 15.7124 1.64623 15.0406 2.12534 14.9142C2.10042 15.2161 2.05443 15.4897 1.99694 15.835C1.87428 16.5747 1.83212 16.303 0.902646 16.8521C0.611346 17.0257 0.421618 17.1181 0.132235 17.2691ZM2.9245 15.6992C2.92833 15.5444 3.04715 14.6821 3.08931 14.5538C3.25987 14.05 5.17057 13.2349 5.71484 12.9518C5.71484 13.7519 5.74742 14.1764 5.27981 14.4859C5.11116 14.5972 4.92718 14.6633 4.76045 14.7595C4.35991 14.9897 3.31545 15.6086 2.9245 15.6992ZM0.132235 15.0444V13.7368C0.511691 13.5386 0.714834 13.4424 1.06171 13.2141C1.06171 13.5386 0.994635 14.1028 0.92181 14.3859C0.799158 14.8821 0.657341 14.9255 0.132235 15.0444ZM6.64432 13.7368C6.64432 12.314 6.76314 12.3272 7.57379 11.9046V13.2122C7.22692 13.4424 7.02377 13.5386 6.64432 13.7368ZM0.132235 13.4745V12.0348C0.544271 11.9404 0.51744 11.8668 0.929476 11.7725C1.43542 12.8103 1.24377 12.8971 0.132235 13.4745ZM2.39172 13.867C2.39172 12.0612 2.55271 12.4122 4.78345 11.2498C4.32733 13.1801 5.27406 12.3669 2.39172 13.867ZM17.2748 11.9046C16.6443 12.0499 15.9161 12.7443 15.0154 12.9518C14.6934 11.5895 14.726 11.7857 17.0085 10.5969C17.0755 11.3913 16.974 11.346 17.2748 11.9046ZM5.97931 11.9046C6.11346 11.6291 6.2457 10.7649 6.2457 10.3347C6.78613 10.2101 7.17517 9.94407 7.57379 9.6799V11.1177C7.22117 11.3026 6.30894 11.8197 5.97931 11.9046ZM0.132235 11.2517V10.5969C0.906479 11.1555 0.352626 10.9706 0.132235 11.2517ZM2.65811 12.0367C2.65811 11.3404 2.56804 11.2442 2.52588 10.729C4.25068 10.3328 4.78536 8.55529 4.78536 10.9913C4.17785 11.1498 3.26371 11.8763 2.65811 12.0367ZM18.4707 9.81198C18.9824 9.54404 20.2223 8.76663 20.7302 8.63454C20.7302 9.32893 20.7359 9.40629 20.8624 9.94218C20.5175 10.0328 19.7049 10.5083 19.3733 10.7158C18.3212 11.3706 18.8042 10.495 18.4707 9.81198ZM17.1407 10.3347C16.238 10.5422 15.7838 11.1743 14.8812 11.3819C15.3009 10.5215 14.7777 10.1913 15.575 9.71009C16.0157 9.44403 16.767 9.01193 17.2729 8.89494C17.2614 9.46479 17.1407 9.61008 17.1407 10.3347ZM6.11346 8.76474C6.7708 8.61379 7.0506 8.24773 7.57379 8.10998V9.41762C7.0966 9.66669 6.82255 9.94029 6.2457 10.0724C6.29936 9.44592 6.36068 9.31195 6.11346 8.76474ZM0.132235 6.80234C0.132235 6.61365 0.940975 6.25891 1.16903 6.12305C1.55615 5.89096 1.85512 5.67019 2.39172 5.62491C2.64278 8.5836 3.92296 7.94393 4.25259 9.15722C3.81373 9.25723 3.54542 9.43082 3.14297 9.63461C2.65811 9.87991 2.49713 10.0875 1.9931 10.2045C1.50249 9.8818 1.65006 9.78179 0.864317 9.09118L0.132235 6.80234ZM18.6029 9.4195C18.6164 8.85154 18.7352 8.70625 18.7352 7.97978C19.5075 7.57787 20.2281 7.20237 20.9947 6.80234C20.9736 7.06085 20.9103 7.52881 20.8528 7.84015C20.7513 8.40057 20.7244 8.30433 20.2492 8.55341C19.657 8.86475 19.1721 9.12326 18.6029 9.4195ZM17.6735 7.71939C17.6735 6.13438 17.8574 6.35514 18.6278 5.91172C19.0265 5.68151 20.0709 5.06261 20.4638 4.97203C20.4581 5.0494 20.3201 6.04192 20.2971 6.11551C20.1323 6.64762 18.2062 7.44012 17.6735 7.71939ZM22.3228 7.45711C22.3228 5.61547 22.639 5.97021 23.8099 5.25696C24.1587 5.04374 24.2718 4.94184 24.7145 4.83995C24.2986 5.69284 24.8965 6.00418 23.9326 6.55705C23.4305 6.84574 22.8172 7.13067 22.3228 7.45711ZM3.71982 4.70975C4.49215 4.30784 5.21082 3.93234 5.97931 3.53231C6.23228 4.0531 6.23036 4.96071 6.57341 5.56453C7.06402 6.42496 7.57379 5.95134 7.57379 7.32691C7.13109 7.4288 7.01802 7.5307 6.66923 7.74392C6.33002 7.94959 6.0483 8.06847 5.71484 8.24206C3.7179 6.92688 4.10503 5.55887 3.71982 4.70975ZM21.261 5.75699C21.6616 4.0682 20.7053 4.75315 24.0514 3.00964C24.0514 3.80969 24.084 4.23425 23.6164 4.5437C23.4477 4.65503 23.2637 4.72107 23.097 4.81731C22.7041 5.04185 21.6405 5.65698 21.261 5.75699ZM7.44156 2.74735C7.59871 2.99265 7.59104 2.45488 7.5508 3.00964C7.53163 3.2889 7.53546 3.12663 7.44156 3.27192V2.74735ZM20.7283 3.92479C21.1729 2.04731 20.2089 2.82472 23.12 1.30764C23.12 3.1153 22.959 2.76245 20.7283 3.92479ZM20.596 13.2141L19.1338 11.6442C19.8371 11.2781 20.5577 10.8328 21.2591 10.4667C21.6079 10.6969 21.6309 10.7687 22.0564 10.9894C22.501 10.1629 23.0031 9.261 23.5167 8.50435C23.0242 8.63266 22.8919 8.89683 22.3208 9.02702C22.1369 8.24961 22.3304 8.38358 22.1886 7.71939C22.8076 7.57787 23.2158 7.19294 23.7831 6.92688C24.8333 6.43251 24.3408 7.18916 25.0556 5.96455L26.8379 2.87944C26.24 3.01718 25.5194 3.51156 24.977 3.7946C24.9904 3.22475 25.1093 3.08134 25.1093 2.35488L27.4627 1.15102C27.8402 1.07554 27.6792 1.66238 28.4324 0.260395H26.5715C26.5581 0.86987 26.8072 0.637779 25.7187 1.25291C25.2166 1.53784 24.8889 1.66804 24.4443 1.96051C24.4443 1.27933 24.5382 0.707595 24.8429 0.260395H23.1162C23.1162 0.939686 23.2273 0.935912 22.3132 1.43406C21.9912 1.60954 21.3147 2.00768 20.9889 2.09259C20.9889 1.39821 20.9832 1.31896 20.8567 0.784959C21.355 0.671743 21.4584 0.541546 21.7862 0.262282H19.5267C19.3714 0.920817 18.9096 1.20008 18.7294 1.9624C19.0035 1.81899 19.0437 1.78125 19.3944 1.70011C19.5209 2.236 19.5267 2.31525 19.5267 3.00775C18.9153 3.14738 18.7965 3.3606 18.2829 3.62477C17.5546 3.99838 17.5642 3.64364 17.3994 4.31727C17.7904 4.21349 19.0476 3.49835 19.3925 3.27003C19.3925 4.03423 19.2603 4.1833 19.2603 4.83995C18.7716 4.95316 17.7118 5.58528 17.1349 5.88719C17.1349 5.16261 17.2557 5.01732 17.2672 4.44747L15.5405 7.5873C15.9582 7.37031 16.3013 7.15897 16.7363 6.93254C16.7363 8.50812 16.4297 8.4817 15.8988 8.72323C14.3714 9.42139 14.3369 9.47234 13.762 10.5498C13.4515 11.1291 13.5224 10.9498 13.509 11.4121C13.4592 13.1481 12.7405 12.0084 12.4856 12.948C12.8747 12.8594 13.1008 12.7197 13.4151 12.5556C13.4151 13.2499 13.4209 13.3273 13.5474 13.8632C13.0951 14.0991 12.0276 14.8595 11.4968 14.801C11.4833 14.7991 11.445 14.7916 11.422 14.7784L10.3584 16.6106C11.3664 16.8747 12.2193 18.6126 12.2193 20.0127C11.4508 20.4127 10.7148 20.7976 9.95977 21.1901C9.94444 20.4919 9.69146 19.0088 9.03029 18.8352C8.88272 19.456 8.4841 19.6711 8.31737 20.2334C8.17939 20.7014 8.57609 21.3279 8.63167 21.9751C8.17556 22.0788 6.87621 22.8902 6.37218 23.1525C6.27061 22.7261 5.91415 21.3203 5.72826 21.0392C5.42737 20.5844 4.66654 20.0636 4.51131 19.49C4.85436 19.4107 6.2342 18.6541 6.63665 18.4428C7.0966 18.7447 7.3534 19.0975 7.70028 19.49V0.262282H0V27.6056C2.47988 27.6056 4.96168 27.6019 7.44156 27.6056C9.07245 27.6075 9.44041 27.6056 10.5884 27.0414C12.9341 25.8885 14.6014 23.4544 15.8548 21.2373C16.7631 19.624 17.7463 18.2088 18.6029 16.6143C18.1468 16.7181 17.7846 16.9408 17.4071 17.137C17.1081 16.5238 17.1388 15.5916 16.7651 15.0218C16.3952 14.4595 15.6152 14.2783 15.5481 13.4726C16.4546 13.265 16.9835 12.6141 17.8076 12.4254C18.097 12.8499 18.3921 13.1839 18.7754 13.5651C19.1779 13.9651 19.3446 14.4934 19.4021 15.1727C19.6876 14.9689 20.5021 13.6141 20.596 13.2141ZM18.7352 1.9624H18.6029L18.7141 2.11524L18.7352 1.9624ZM18.7352 16.3539H18.6029L18.7141 16.5068L18.7352 16.3539ZM20.596 13.2141H20.7283L20.6171 13.0613L20.596 13.2141ZM15.5462 7.5873H15.414L15.5251 7.74014L15.5462 7.5873ZM18.7352 16.3539H18.8674L18.7563 16.2011L18.7352 16.3539ZM11.4278 14.784H11.56L11.4488 14.6312L11.4278 14.784ZM12.4895 12.9518H12.3572L12.4684 13.1047L12.4895 12.9518ZM26.8417 2.87755H26.974L26.8628 2.72471L26.8417 2.87755ZM7.84018 21.0637C7.85359 21.0769 7.88042 21.0052 7.88042 21.0241C7.87659 21.0278 7.82676 21.0505 7.84018 21.0637ZM18.3365 2.48507L18.3768 2.44545C18.3749 2.44922 18.3251 2.47186 18.3365 2.48507ZM11.56 14.5217L11.6002 14.4821C11.5983 14.4859 11.5466 14.5085 11.56 14.5217ZM19.1338 15.6992L19.174 15.6595C19.1721 15.6633 19.1204 15.686 19.1338 15.6992ZM10.2319 16.8766L10.2721 16.837C10.2683 16.8408 10.2185 16.8634 10.2319 16.8766ZM9.5669 18.054L9.60714 18.0144C9.60522 18.0182 9.55348 18.0408 9.5669 18.054ZM17.6735 3.66251L17.7137 3.62289C17.7099 3.62666 17.66 3.6493 17.6735 3.66251ZM18.8693 16.0917L18.9096 16.052C18.9057 16.0558 18.8559 16.0784 18.8693 16.0917ZM15.1476 8.11187L15.1878 8.07224C15.184 8.07413 15.1342 8.09866 15.1476 8.11187ZM23.9172 7.71939L23.9575 7.67976C23.9556 7.68165 23.9057 7.70618 23.9172 7.71939ZM27.3726 1.9624L27.4128 1.92277C27.409 1.92654 27.3592 1.94919 27.3726 1.9624ZM9.83328 17.5314L9.87353 17.4917C9.86969 17.4955 9.81987 17.5182 9.83328 17.5314ZM26.974 2.61716L27.0142 2.57753C27.0104 2.57942 26.9606 2.60395 26.974 2.61716ZM18.2043 2.74735L18.2446 2.70773C18.2407 2.7115 18.1909 2.73415 18.2043 2.74735ZM11.8264 13.9991L11.8647 13.9594C11.8628 13.9613 11.813 13.9858 11.8264 13.9991ZM13.1545 11.6442L13.1947 11.6046C13.1928 11.6064 13.1411 11.631 13.1545 11.6442ZM21.3933 11.9046L21.4335 11.865C21.4297 11.8687 21.3799 11.8914 21.3933 11.9046ZM21.7919 11.2517L21.8321 11.2121C21.8283 11.214 21.7785 11.2385 21.7919 11.2517ZM9.16827 18.7088L9.20852 18.6692C9.2066 18.673 9.15486 18.6956 9.16827 18.7088ZM13.0222 11.9046L13.0625 11.865C13.0587 11.8687 13.0088 11.8914 13.0222 11.9046ZM12.7559 12.4291L12.7961 12.3895C12.7942 12.3914 12.7424 12.4159 12.7559 12.4291ZM14.749 8.89683L14.7892 8.8572C14.7873 8.85909 14.7355 8.88362 14.749 8.89683ZM9.70105 17.7918L9.74129 17.7521C9.73746 17.7559 9.68763 17.7804 9.70105 17.7918ZM12.0928 13.6066L12.133 13.567C12.1292 13.5688 12.0794 13.5934 12.0928 13.6066ZM14.4845 9.2893L14.5247 9.24968C14.5209 9.25157 14.4711 9.2761 14.4845 9.2893ZM11.6942 14.2595L11.7344 14.2198C11.7306 14.2236 11.6807 14.2481 11.6942 14.2595ZM20.8624 12.8216L20.9027 12.782C20.8988 12.7839 20.849 12.8084 20.8624 12.8216ZM19.2679 15.4388L19.3063 15.3992C19.3044 15.401 19.2545 15.4256 19.2679 15.4388ZM27.2404 2.22468L27.2806 2.18505C27.2768 2.18694 27.2269 2.21147 27.2404 2.22468ZM18.0721 3.00964L18.1123 2.97001C18.1085 2.9719 18.0587 2.99643 18.0721 3.00964ZM27.639 1.56992L27.6792 1.53029C27.6754 1.53407 27.6256 1.55671 27.639 1.56992ZM7.70603 21.3241L7.74627 21.2845C7.74436 21.2882 7.69453 21.3128 7.70603 21.3241ZM20.9947 12.5593L21.0349 12.5197C21.0311 12.5235 20.9812 12.5461 20.9947 12.5593ZM12.225 13.3443L12.2653 13.3047C12.2614 13.3084 12.2116 13.3311 12.225 13.3443ZM24.3159 7.06463L24.3561 7.025C24.3542 7.02878 24.3024 7.05142 24.3159 7.06463ZM24.0514 7.45711L24.0916 7.41748C24.0878 7.42126 24.038 7.4439 24.0514 7.45711ZM12.89 12.1669L12.9303 12.1272C12.9264 12.131 12.8766 12.1536 12.89 12.1669ZM21.261 12.1669L21.3013 12.1272C21.2975 12.131 21.2476 12.1536 21.261 12.1669ZM14.8831 8.63454L14.9234 8.59492C14.9195 8.59869 14.8697 8.62134 14.8831 8.63454ZM23.785 7.97978L23.8253 7.94204C23.8214 7.94393 23.7716 7.96657 23.785 7.97978ZM15.0154 8.37226L15.0556 8.33264C15.0518 8.33641 15.0019 8.35905 15.0154 8.37226ZM23.5186 8.37226L23.5589 8.33264C23.5569 8.33641 23.5052 8.35905 23.5186 8.37226ZM167.451 22.5034C166.365 22.5034 165.544 22.1015 165.142 21.3769C164.592 20.3863 164.958 19.6221 165.182 18.5692C165.796 15.6822 167.43 10.7026 168.513 7.98167C168.937 6.91556 169.069 6.65517 170.086 6.1306C171.83 5.23054 177.417 4.96449 177.417 7.3288C177.417 9.87236 174.891 16.6992 173.81 19.3466C173.515 20.0712 173.339 20.9429 172.735 21.4279C171.585 22.3468 169.502 22.5034 167.451 22.5034ZM169.604 27.9981H166.438C161.871 27.9094 156.29 27.1471 156.29 21.8486C156.29 17.8484 159.768 5.84002 162.166 3.43042C164.703 0.879305 169.512 0 173.431 0H173.592H174.094C177.538 0.00377384 182.752 0.109441 184.937 2.6681C186.562 4.57012 186.2 5.57773 186.052 7.32691C186.229 7.1269 185.995 7.4288 186.234 7.11369C186.305 7.02123 186.33 6.98538 186.395 6.8816L187.219 5.60038C187.603 5.03241 187.955 4.53049 188.41 4.0248C190.391 1.8171 192.877 0.735899 195.937 0.315116C197.459 0.105667 211.187 0.262282 213.423 0.262282C213.41 0.862322 213.159 1.3567 212.996 1.93598C212.752 2.80208 211.576 6.19287 211.562 6.80423H204.519L202.942 12.0536C202.373 13.8085 201.886 15.569 201.348 17.2861L198.141 27.6056H189.638C189.78 27.3132 189.926 26.6867 190.054 26.315L192.081 19.807C192.633 18.188 195.763 7.59674 196.148 6.80423C192.363 6.80423 188.85 6.61743 186.347 9.06099C185.472 9.91576 185.633 9.67801 185.328 11.0668C184.914 12.9575 184.004 16.3256 183.408 17.9427C182.265 21.0429 181.685 23.3601 179.17 25.5451C178.279 26.3188 176.528 27.1452 175.098 27.4226C173.498 27.7339 171.51 28 169.705 28H169.604V27.9981ZM222.862 22.5034C221.775 22.5034 220.957 22.1015 220.552 21.3769C220.002 20.3863 220.368 19.6221 220.592 18.5692C221.206 15.6822 222.84 10.7026 223.923 7.98167C224.347 6.91556 224.479 6.65517 225.499 6.1306C227.243 5.23054 232.829 4.96449 232.829 7.3288C232.829 9.40629 229.297 20.5052 228.147 21.4279C226.995 22.3468 224.912 22.5034 222.862 22.5034ZM228.986 0H230.418C233.08 0.0094346 235.867 0.120763 237.967 1.08875C238.751 1.44915 239.789 2.01334 240.349 2.6681C240.851 3.25494 241.597 4.37199 241.597 5.36451C241.597 9.58932 239.078 17.454 237.572 21.158C237.022 22.5128 236.725 23.2582 235.853 24.3054C233.344 27.3207 229.04 27.9981 225.119 27.9981H225.012H221.846C217.281 27.9094 211.698 27.1471 211.698 21.8486C211.698 17.7503 214.324 10.078 215.778 6.50421C216.763 4.08707 217.8 2.6115 220.522 1.49444C222.783 0.566076 225.706 0 228.841 0H228.986ZM257.143 14.1293H252.359C252.379 13.3066 254.864 6.22683 254.885 5.36263H260.334C262.505 5.36263 263.18 9.44403 260.832 12.0027C259.964 12.9462 259.247 14.1293 257.143 14.1293ZM240.002 27.6056H248.107C248.371 27.0641 248.523 26.3942 248.724 25.7263L250.499 19.8862H255.548L256.894 23.6639C257.29 24.8432 257.919 26.398 258.207 27.6056H266.179L263.389 19.1013C267.54 16.9389 270.432 11.4423 270.432 6.54195C270.432 2.64924 266.635 0.241526 262.595 0.258508C257.856 0.279264 253.113 0.262282 248.375 0.262282L240.518 25.8885C240.359 26.398 240.125 27.0848 240.002 27.6056ZM274.684 7.97978C273.96 11.0007 273.885 15.0765 277.315 16.5181C280.37 17.8012 285.878 17.1427 286.599 17.5767C288.04 18.4465 287.333 20.4184 285.02 20.9052C282.871 21.3562 273.896 21.1958 271.363 21.1958L269.768 27.6056C274.406 27.6056 284.033 28.0264 287.428 27.0697C289.701 26.4301 291.361 25.2243 292.568 23.2355C294.995 19.239 297.105 12.7518 290.269 11.4781C288.885 11.2196 285.382 11.2536 283.456 11.1196C282.193 11.0328 281.141 10.1158 281.94 8.4534C282.75 6.76649 285.681 6.80423 287.572 6.80423C290.849 6.80423 294.128 6.80423 297.406 6.80423L299 0.132084C295.28 0.132084 291.558 0.132084 287.839 0.132084C284.397 0.132084 281.424 0.137745 278.829 1.09064C275.807 2.20015 270.914 6.81744 271.202 10.1743C271.677 10.1554 272.729 8.42887 274.684 7.97978ZM121.61 19.624C122.382 19.222 123.103 18.8466 123.869 18.4465C124.996 20.1032 125.004 18.4824 125.863 22.109C125.282 22.243 124.094 23.1223 123.471 23.2865C123.413 22.6034 123.193 21.6298 122.867 21.1335C122.653 20.8071 122.513 20.6957 122.242 20.441C122.129 20.3334 121.993 20.2221 121.903 20.1202C121.529 19.707 121.777 19.9372 121.61 19.624ZM122.539 16.8766C122.951 16.7823 122.925 16.7087 123.337 16.6143C123.264 16.9219 123.185 16.9917 123.227 17.3899C123.272 17.8069 123.272 17.5653 123.296 17.6767C123.396 18.1239 123.388 18.0012 122.271 18.5748C121.79 18.822 121.694 19.0485 121.077 19.0994C120.909 18.3144 121.259 18.439 120.945 17.7918C121.169 17.6823 121.179 17.671 121.344 17.5295H121.077L121.209 15.9596L123.469 14.7821C123.469 15.4369 123.337 15.5878 123.337 16.352C122.932 16.5653 122.806 16.5181 122.539 16.8766ZM126.393 14.784L126.92 14.6368C126.926 15.3803 127.014 15.5558 127.058 16.0917C125.767 16.3879 124.684 17.9352 124.651 16.3464C124.634 15.5218 124.822 15.9426 125.198 15.4369L124.671 15.5841C125.096 13.582 124.352 14.2991 127.191 12.8197C127.101 13.2028 127.104 13.5386 127.009 13.95C126.825 14.7444 126.771 14.2745 126.393 14.784ZM136.225 11.6442C137.702 11.3064 138.388 9.42894 139.948 11.9027C140.184 12.2744 140.464 13.5311 140.477 14.1293C139.711 14.5293 138.99 14.9048 138.218 15.3067C137.547 13.9311 138.467 13.9991 136.855 12.4612C136.74 12.3518 136.608 12.2404 136.516 12.1404C136.146 11.7253 136.393 11.9574 136.225 11.6442ZM123.735 13.867C123.749 13.2971 123.868 13.1537 123.868 12.4273L126.658 10.9875C126.658 11.748 126.606 12.3461 126.181 12.6122C126.02 12.7141 125.859 12.7575 125.652 12.8763C125.205 13.1311 124.161 13.7707 123.735 13.867ZM127.455 11.9046L127.614 10.3365L130.245 9.02514C130.245 10.7724 130.117 10.5196 127.455 11.9046ZM136.758 9.15722C137.214 9.05344 137.576 8.83078 137.953 8.63454C137.953 9.36101 138.042 9.53649 138.086 10.0743C137.666 10.1705 136.922 10.6498 136.489 10.8724C135.489 11.3857 135.694 10.9253 135.694 9.81198C136.116 9.5931 136.487 9.5214 136.758 9.15722ZM127.854 7.97978C128.316 7.87412 128.915 7.53447 129.316 7.32502C129.303 7.89487 129.184 8.03828 129.184 8.76474C128.484 9.22515 127.687 9.67612 126.924 10.0724C126.924 7.89676 127.386 8.60813 127.854 7.97978ZM136.758 9.15722C136.25 9.27421 136.202 9.4346 135.694 9.5497C136.459 7.98167 134.523 8.72889 138.218 6.80234C138.076 8.47604 137.961 8.44774 137.378 8.72323C136.924 8.94022 137.014 8.81191 136.758 9.15722ZM127.854 7.97978C127.442 8.07413 127.469 8.14772 127.057 8.24206C127.185 7.96846 127.101 7.29672 126.924 6.93443C127.44 6.66649 128.707 5.88153 129.184 5.75699C129.26 6.07777 129.454 6.47591 129.356 6.84952C129.22 7.37031 129.347 7.00047 129.174 7.17595C128.841 7.50994 128.226 7.48164 127.854 7.97978ZM147.254 5.75699C147.756 5.49471 149.057 4.68333 149.513 4.57955C150.002 4.90222 150.512 5.37772 150.866 5.86455C151.135 6.2325 151.507 7.37974 151.507 7.98167C151.507 8.28169 149.421 9.24968 149.247 9.2893C148.94 8.66096 148.979 7.87789 148.548 7.23068C148.157 6.6363 147.63 6.30797 147.254 5.75699ZM131.708 5.88719C132.286 5.75322 132.457 5.4966 133.036 5.36451C132.953 5.71737 132.93 6.08343 132.835 6.47402C132.645 7.23068 131.738 7.47409 130.512 8.11187C130.596 7.75524 130.663 6.91367 130.771 6.66649C131.054 6.0155 131.242 6.51365 131.708 5.88719ZM137.555 6.40987C137.076 6.72498 135.286 7.72882 134.764 7.84959C134.772 7.50617 134.832 6.9533 134.876 6.78348C135.071 6.06833 137.106 5.27394 137.687 4.97203C137.643 5.50792 137.555 5.6834 137.555 6.40987ZM131.708 5.88719C131.319 5.97587 131.093 6.11551 130.778 6.27967C130.778 5.5532 130.69 5.37583 130.646 4.83995C131.468 4.65126 131.999 4.00216 132.906 3.79271C133.032 4.32859 133.038 4.40784 133.038 5.10034C132.591 5.33432 131.999 5.4966 131.708 5.88719ZM134.234 6.01739C134.278 4.08518 134.78 4.38897 135.721 3.81724C136.07 3.6059 136.183 3.50212 136.625 3.40023C136.625 3.86252 136.598 4.14368 136.518 4.472C136.323 5.28149 136.2 4.95505 135.138 5.59849C134.789 5.8136 134.676 5.91549 134.234 6.01739ZM150.976 3.66251C151.353 3.57571 152.894 2.70962 153.235 2.48507C153.611 3.03794 154.18 3.34928 154.59 3.89838C154.841 4.23236 155.184 5.62679 155.228 6.14947L152.837 7.32691C152.605 4.58899 151.807 5.22299 150.976 3.66251ZM136.758 3.13983C135.826 3.35306 135.282 4.1116 134.366 4.18707C134.672 3.55873 134.418 3.49458 134.366 2.87944C135.06 2.51715 136.043 1.88126 136.625 1.8322L136.758 3.13983ZM148.584 2.74735C148.843 2.67943 148.789 2.72283 148.983 2.61716L149.071 4.06065L147.562 4.89844C146.539 5.46452 146.723 4.72485 146.723 3.7946C147.112 3.70214 146.915 3.81158 147.122 3.53231H146.855C146.855 2.76811 146.988 2.61904 146.988 1.9624C147.89 1.75484 148.342 1.12272 149.247 0.915156C149.099 2.66999 148.86 2.37563 148.584 2.74735ZM151.24 1.30764C150.828 1.40198 150.855 1.47368 150.443 1.56992C150.485 1.06611 150.575 1.14725 150.575 0.524564L152.436 0.654761H152.702C152.691 1.1397 152.63 1.07177 152.664 1.385C152.7 1.72842 152.769 1.80956 152.837 2.09448C151.029 2.5096 150.445 4.37765 150.445 1.8322C150.849 1.62086 150.974 1.66615 151.24 1.30764ZM128.252 0.784959C129.017 0.386818 129.663 0.522677 130.776 0.522677C131.332 2.87 132.179 2.07372 132.503 3.27003C132.024 3.37947 131.721 3.58515 131.332 3.81724C130.914 4.07009 130.527 4.23047 130.111 4.44558C129.728 3.02662 128.762 4.68711 128.252 0.784959ZM154.299 1.18121C154.151 0.907608 154.113 0.866096 154.03 0.522677H155.491L154.299 1.18121ZM125.198 9.4195C125.456 9.35157 125.403 9.39497 125.596 9.2893C125.596 9.71575 125.564 10.1384 125.514 10.3856C125.382 11.0177 125.414 10.8724 124.948 11.1385C124.594 11.3423 123.597 11.9348 123.204 12.0385C123.218 11.4687 123.337 11.3253 123.337 10.5988C123.624 10.4082 123.795 10.3516 124.002 10.0762L123.475 10.2233C123.469 9.50441 123.624 9.3327 123.204 9.0308C123.183 9.97614 122.03 12.5329 122.009 13.4783C122.361 13.2952 122.587 13.1386 122.938 12.9556C122.938 13.8236 122.944 14.3689 122.325 14.7067C121.62 15.0897 121.292 15.0048 121.211 15.9652C120.945 16.3766 119.985 20.0617 119.749 20.5448L120.405 20.675C120.437 20.6938 120.573 20.824 120.613 20.8656C121.505 21.8015 122.106 22.5393 122.141 24.0771C121.386 24.4696 120.652 24.8545 119.881 25.2545C119.421 24.3092 119.613 23.4657 118.952 23.0299C118.917 23.4337 118.666 24.1922 118.532 24.5866C118.206 25.5413 118.325 25.079 118.553 26.0395C118.342 26.1357 118.482 26.0621 118.293 26.1074C118.277 26.1112 118.231 26.1206 118.216 26.1244C118.201 26.1282 118.16 26.1376 118.147 26.1395C118.134 26.1414 118.091 26.1508 118.084 26.1527C118.074 26.1546 118.042 26.1584 118.024 26.1678C117.907 26.6622 117.666 27.2603 117.626 27.7377H125.864C126.11 27.232 126.223 26.6376 126.413 26.0527L127.99 20.9335L127.194 21.3316C126.505 18.4616 126.865 19.4806 125.832 18.4786C125.669 18.3201 125.322 17.8427 125.199 17.6635C125.707 17.5295 126.947 16.7521 127.459 16.486L128.892 17.822C129.099 17.4276 129.347 16.537 129.452 16.0935C128.988 15.9709 129.153 16.0445 128.921 15.7011C129.743 15.2727 129.74 15.4256 129.985 14.3934C129.787 14.4972 129.029 14.9784 128.854 15.0067C128.178 15.118 128.39 14.3991 128.39 13.7387C128.873 13.6273 128.816 13.667 129.055 13.3462C128.707 13.4254 128.664 13.4651 128.39 13.6085C128.398 13.2688 128.448 13.1141 128.479 12.9103L128.553 12.4612C128.756 11.6498 128.781 11.9725 129.663 11.4612C130.09 11.2121 130.372 11.0762 130.782 10.863C130.782 11.1158 130.761 11.4083 130.914 11.648C130.933 10.8102 131.294 10.6535 131.313 9.81576C130.91 10.0384 131.163 9.88557 131.047 9.81576C131.254 9.39309 131.179 9.1025 131.179 8.50812L133.969 7.0684C133.965 7.24388 133.94 7.4722 133.931 7.61183C133.889 8.27792 133.933 8.4251 133.308 8.7704C133.019 8.93079 132.756 9.03268 132.415 9.21005C132.269 9.28553 132.11 9.37799 132.011 9.42705L131.88 9.48743C131.869 9.49309 131.832 9.50819 131.821 9.51196L131.712 9.55347C131.897 9.93274 131.798 9.81198 131.88 10.3026L132.07 11.0328C132.078 11.0536 132.093 11.0951 132.11 11.1234C132.507 9.44781 131.871 10.346 133.697 9.28553C133.977 9.12326 134.113 8.98928 134.502 8.9006C134.492 9.3327 134.446 9.41573 134.383 9.83085C134.297 10.4139 134.36 10.2214 134.103 10.6007L134.362 10.7422C134.297 11.597 134.055 11.2083 134.502 12.0404C133.73 12.2178 133.479 12.6858 132.647 12.9009L132.438 12.9443C132.428 12.9462 132.394 12.948 132.377 12.9556C132.564 13.3424 132.509 13.3217 132.509 13.8707C132.739 13.633 132.733 13.6481 133.038 13.4764C133.258 13.3518 133.381 13.2858 133.628 13.1405C134.03 12.9046 134.448 12.665 134.901 12.5631C136.294 13.482 136.531 14.567 136.894 16.0954L134.502 17.2729C134.471 16.9049 134.099 15.5595 133.969 15.3124C133.808 15.0123 133.59 14.9029 133.348 14.6142C133.005 14.2047 133.199 14.1481 132.641 14.0009L133.737 19.8561C133.839 20.3485 134.09 21.2826 134.103 21.8505H136.096C136.999 20.524 143.768 12.9216 143.937 12.2989C143.548 12.3876 142.283 13.1235 141.943 13.3462C141.664 12.7726 141.581 11.7064 141.298 11.2347C140.97 10.6894 140.382 10.4856 139.95 9.68367C140.336 9.48366 140.682 9.34591 141.091 9.10439C141.526 8.84777 141.825 8.62511 142.342 8.50623C143.185 9.74594 143.283 9.44781 143.605 9.87991C143.762 10.0912 144.174 11.714 144.203 12.0385C144.469 11.8461 145.318 10.7819 145.531 10.4686C144.916 10.2233 145.399 9.73462 144.835 9.0591C144.542 8.70813 144.036 8.0779 143.67 7.98167V7.58919C144.577 7.38163 145.106 6.73064 145.93 6.54195C146.07 6.63441 147.181 7.80996 147.281 7.96091C147.469 8.24584 147.823 9.64593 147.923 10.0743C147.396 10.3498 146.606 10.9347 145.93 10.9894C145.916 11.5668 143.64 18.7069 143.421 19.3787L140.88 27.7358H149.383C149.396 27.1377 149.648 26.6395 149.81 26.0621L154.383 11.0706C154.764 9.91765 155.012 8.86664 155.38 7.73448C155.947 5.9872 156.974 4.01159 155.707 2.93227C155.313 2.5964 154.841 2.21902 154.699 1.70011L156.514 0.739672C156.781 0.583058 156.65 0.67363 156.825 0.522677L157.467 1.06988C157.518 0.6925 157.553 0.690613 157.622 0.392479C155.163 0.392479 152.03 0.222656 149.655 0.39814C147.574 0.550981 145.5 1.94919 144.6 3.27192C144.989 3.18323 145.215 3.0436 145.529 2.87944C145.529 3.5342 145.397 3.68515 145.397 4.44936C144.914 4.56068 144.971 4.52106 144.732 4.84184L145.259 4.69466C145.265 5.40602 145.27 5.48339 145.397 6.01927C144.784 6.42307 143.944 6.84574 143.272 7.19671C142.771 6.17211 143.088 5.89662 143.272 5.62679C143.254 5.60038 143.222 5.53245 143.218 5.54943C143.214 5.56641 143.18 5.48339 143.174 5.46075C143.135 5.28526 143.139 5.28904 143.139 5.10223C143.02 5.2362 142.909 5.36263 142.777 5.53056C142.449 5.94757 141.938 6.67404 141.545 6.93254C141.629 7.29294 141.725 7.61938 141.811 7.97978C141.365 8.21187 141.048 8.4817 140.535 8.64775C140.004 8.82135 140.462 8.46283 140.063 8.87418C139.793 9.15345 140 9.12326 139.552 9.4195C139.523 8.12885 138.887 6.75517 138.887 5.49471C138.486 5.94946 138.687 5.84379 138.488 5.75699C138.488 3.97197 138.983 3.85875 138.022 3.92479C138.013 3.92479 137.976 3.93611 137.957 3.92479C137.957 2.65867 138.511 2.90774 137.716 1.93975C137.325 1.46425 136.639 0.939686 135.964 0.784959L136.248 1.16234C135.623 1.49633 134.398 2.22657 133.837 2.35488C133.252 1.96994 132.584 1.15857 132.242 0.522677L125.864 0.392479C125.815 0.986859 125.472 1.76993 125.334 2.35488C125.751 2.13788 126.388 1.7454 126.928 1.70011L127.493 3.75874C127.927 4.36067 128.346 4.41162 128.787 5.23243L126.395 6.40987C125.004 4.36445 124.933 5.62679 124.933 3.79271L124.517 4.95316C124.398 5.33243 124.23 5.87398 124.136 6.27778C124.626 6.40609 124.95 6.82687 125.199 7.19294C124.579 7.3571 124.182 7.97978 123.605 7.71561C123.592 8.30622 123.454 8.40623 123.339 8.89305C124.042 8.52699 124.763 8.08168 125.464 7.71561C125.69 8.13828 125.679 8.40811 125.73 9.02325C125.282 9.25911 125.481 9.03834 125.198 9.4195ZM143.268 5.62491C143.76 5.51169 144.471 5.18714 144.73 4.83995C144.236 4.95316 143.526 5.27771 143.268 5.62491ZM121.344 17.5314C121.819 17.4219 122.288 17.2144 122.539 16.8766C122.064 16.986 121.595 17.1936 121.344 17.5314ZM124.002 10.0743C124.477 9.96482 124.947 9.75726 125.198 9.4195C124.722 9.52894 124.253 9.7365 124.002 10.0743ZM125.198 15.4388C125.673 15.3293 126.142 15.1218 126.393 14.784C125.918 14.8916 125.449 15.101 125.198 15.4388ZM132.904 11.2517C133.379 11.1423 133.848 10.9347 134.099 10.5969C133.624 10.7064 133.155 10.9139 132.904 11.2517ZM147.388 3.40212C147.863 3.29267 148.333 3.08511 148.584 2.74735C148.109 2.8568 147.639 3.06436 147.388 3.40212ZM129.05 13.3443C129.525 13.2349 129.994 13.0273 130.245 12.6895C129.772 12.799 129.303 13.0065 129.05 13.3443ZM151.24 1.30764C151.715 1.19819 152.185 0.990633 152.436 0.652874C151.961 0.762316 151.491 0.969877 151.24 1.30764ZM132.904 11.2517C132.651 11.3083 132.589 11.3253 132.332 11.4178C131.98 11.5461 132.164 11.1215 132.106 11.7744C132.511 11.563 132.637 11.6102 132.904 11.2517ZM135.295 0.652874C135.431 0.786845 135.776 0.464182 135.449 0.583058C135.447 0.584945 135.073 0.433992 135.295 0.652874ZM130.245 12.6895L130.504 12.8311C130.447 12.648 130.596 12.7065 130.431 12.6537C130.176 12.5707 130.426 12.5914 130.245 12.6895ZM131.441 9.2893C131.441 9.61386 131.654 9.32327 131.524 9.2893C131.524 9.28742 131.441 8.91758 131.441 9.2893ZM119.483 21.3241C119.483 21.6486 119.695 21.358 119.565 21.3241C119.563 21.3241 119.483 20.9542 119.483 21.3241ZM156.955 2.22468C156.955 2.54923 157.168 2.25864 157.037 2.22468C157.035 2.22279 156.955 1.85295 156.955 2.22468ZM138.22 3.00964C138.22 3.33419 138.433 3.0436 138.302 3.00964C138.3 3.00775 138.22 2.63791 138.22 3.00964ZM129.448 15.8294C129.448 16.1539 129.661 15.8633 129.531 15.8294C129.529 15.8294 129.448 15.4595 129.448 15.8294ZM128.252 19.7542C128.252 20.0787 128.465 19.7881 128.335 19.7542C128.335 19.7542 128.252 19.3843 128.252 19.7542ZM130.644 11.9046C130.644 12.2291 130.857 11.9385 130.727 11.9046C130.727 11.9046 130.644 11.5347 130.644 11.9046ZM132.239 12.2971C132.239 12.6216 132.451 12.331 132.321 12.2971C132.321 12.2971 132.239 11.9272 132.239 12.2971ZM138.617 4.97203C138.617 5.29658 138.829 5.006 138.699 4.97203C138.699 4.97015 138.617 4.60031 138.617 4.97203ZM128.651 18.4465C128.651 18.7711 128.864 18.4805 128.733 18.4465C128.733 18.4465 128.651 18.0767 128.651 18.4465ZM119.084 22.6336C119.084 22.9582 119.297 22.6676 119.166 22.6336C119.165 22.6336 119.084 22.2619 119.084 22.6336ZM130.245 13.2141C130.245 13.5386 130.458 13.2481 130.328 13.2141C130.328 13.2122 130.245 12.8424 130.245 13.2141ZM156.556 3.53231C156.556 3.85686 156.769 3.56628 156.639 3.53231C156.637 3.53231 156.556 3.16059 156.556 3.53231ZM119.617 20.9335C119.617 21.258 119.83 20.9675 119.699 20.9335C119.697 20.9316 119.617 20.5618 119.617 20.9335ZM124.002 6.54195C124.002 6.8665 124.214 6.57591 124.084 6.54195C124.082 6.54006 124.002 6.17023 124.002 6.54195ZM157.087 1.8322C157.087 2.15675 157.3 1.86616 157.17 1.8322C157.168 1.83031 157.087 1.46048 157.087 1.8322ZM128.12 20.1466C128.12 20.4712 128.333 20.1806 128.203 20.1466C128.201 20.1466 128.12 19.7768 128.12 20.1466ZM119.218 22.2411C119.218 22.5657 119.431 22.2751 119.301 22.2411C119.299 22.2411 119.218 21.8694 119.218 22.2411ZM138.352 3.53231C138.352 3.85686 138.565 3.56628 138.434 3.53231C138.433 3.53231 138.352 3.16059 138.352 3.53231ZM121.61 14.3915C121.61 14.7161 121.823 14.4255 121.692 14.3915C121.69 14.3915 121.61 14.0198 121.61 14.3915ZM156.689 3.13983C156.689 3.46438 156.901 3.1738 156.771 3.13983C156.769 3.13983 156.689 2.76811 156.689 3.13983ZM146.058 10.729C146.058 11.0536 146.271 10.763 146.14 10.729C146.139 10.7271 146.058 10.3573 146.058 10.729ZM128.519 18.839C128.519 19.1636 128.731 18.873 128.601 18.839C128.599 18.839 128.519 18.4673 128.519 18.839ZM130.113 13.6066C130.113 13.9311 130.326 13.6405 130.196 13.6066C130.194 13.6066 130.113 13.2349 130.113 13.6066ZM146.457 9.4195C146.457 9.74405 146.669 9.45347 146.539 9.4195C146.539 9.4195 146.457 9.04778 146.457 9.4195ZM121.742 13.9991C121.742 14.3236 121.955 14.033 121.825 13.9991C121.823 13.9991 121.742 13.6273 121.742 13.9991ZM123.735 7.45711C123.735 7.78166 123.948 7.49107 123.818 7.45711C123.816 7.45711 123.735 7.08538 123.735 7.45711ZM124.931 3.53231C124.931 3.85686 125.144 3.56628 125.014 3.53231C125.012 3.53231 124.931 3.16059 124.931 3.53231ZM122.009 13.4745H121.876L121.988 13.6273L122.009 13.4745ZM145.527 10.4667H145.659L145.548 10.3139L145.527 10.4667ZM144.331 3.66251H144.464L144.352 3.50967L144.331 3.66251ZM143.8 4.31727H143.933L143.822 4.16443L143.8 4.31727ZM141.142 7.5873H141.01L141.121 7.74014L141.142 7.5873ZM146.058 9.81198H145.926L146.037 9.96482L146.058 9.81198ZM140.612 8.24206H140.744L140.633 8.08922L140.612 8.24206ZM141.142 7.5873H141.275L141.163 7.43446L141.142 7.5873ZM140.612 8.24206H140.479L140.59 8.39491L140.612 8.24206ZM144.199 3.7946H144.067L144.178 3.94744L144.199 3.7946ZM143.268 4.97203H143.4L143.289 4.81919L143.268 4.97203ZM143.8 4.31727H143.668L143.779 4.47011L143.8 4.31727ZM131.309 9.81198H131.441L131.33 9.65914L131.309 9.81198ZM123.868 7.06463C123.881 7.07784 123.908 7.00802 123.908 7.025C123.906 7.02878 123.854 7.05142 123.868 7.06463ZM130.512 12.4291C130.525 12.4423 130.552 12.3725 130.552 12.3895C130.548 12.3914 130.498 12.4159 130.512 12.4291ZM127.988 20.6712C128.001 20.6844 128.026 20.6127 128.026 20.6316C128.024 20.6354 127.974 20.658 127.988 20.6712ZM125.198 2.74735C125.211 2.76056 125.238 2.68886 125.238 2.70773C125.234 2.7115 125.184 2.73415 125.198 2.74735ZM129.981 14.1293L130.021 14.0896C130.017 14.0934 129.968 14.116 129.981 14.1293ZM121.476 14.9142L121.516 14.8746C121.514 14.8784 121.462 14.901 121.476 14.9142ZM128.785 18.054L128.825 18.0144C128.822 18.0182 128.772 18.0408 128.785 18.054ZM156.424 4.05499L156.462 4.01537C156.461 4.01914 156.409 4.04178 156.424 4.05499ZM125.063 3.13983L125.104 3.10021C125.102 3.10398 125.05 3.12663 125.063 3.13983ZM128.387 19.3636L128.425 19.3239C128.423 19.3258 128.373 19.3485 128.387 19.3636ZM146.192 10.3347L146.232 10.295C146.229 10.2988 146.179 10.3215 146.192 10.3347ZM156.821 2.74735L156.861 2.70773C156.859 2.7115 156.809 2.73415 156.821 2.74735ZM157.221 1.43972L157.262 1.40009C157.258 1.40198 157.208 1.42651 157.221 1.43972ZM131.575 9.02702L131.616 8.9874C131.612 8.99117 131.562 9.01381 131.575 9.02702ZM119.35 21.8486L119.391 21.809C119.387 21.8128 119.337 21.8354 119.35 21.8486ZM118.155 25.7734L118.195 25.7338C118.191 25.7376 118.141 25.7602 118.155 25.7734ZM146.324 9.68178L146.397 9.96294L146.324 9.68178ZM146.192 9.68178L146.058 9.81198L146.192 9.68178ZM143.268 4.97203L143.135 5.10223L143.268 4.97203ZM135.96 0.784959L135.702 0.634005L135.96 0.784959ZM146.324 9.68178H146.192H146.324ZM144.331 3.66251L144.199 3.79271L144.331 3.66251ZM144.199 12.0367L144.067 12.1669L144.199 12.0367ZM144.065 12.1669L143.933 12.2971L144.065 12.1669ZM147.388 3.40212L147.122 3.53231L147.388 3.40212ZM17.4071 4.31727L17.2748 4.44747L17.4071 4.31727Z" fill="#3364A3"/>
</svg>
