<svg width="226" height="21" viewBox="0 0 226 21" fill="none" xmlns="http://www.w3.org/2000/svg">
<path fill-rule="evenodd" clip-rule="evenodd" d="M68.3962 16.8773C67.5749 16.8773 66.9549 16.5758 66.6507 16.0323C66.235 15.2893 66.5117 14.7161 66.6811 13.9264C66.9955 12.4588 67.4156 11.2232 67.8313 9.84755C68.2412 8.48746 68.7019 7.22503 69.2002 5.98382C69.5218 5.18419 69.6202 4.98888 70.3909 4.59543C71.7091 3.92034 75.9316 3.72078 75.9316 5.49414C75.9316 7.09482 74.4628 11.2317 73.8848 12.8168C73.6385 13.4933 72.8563 15.6998 72.3913 16.0677C71.5208 16.7612 69.9462 16.8773 68.3962 16.8773ZM73.0258 0H74.1064C76.1184 0.00707643 78.2246 0.0905782 79.8137 0.816619C83.3945 2.4541 82.6601 4.63506 82.0474 7.64537C81.5013 10.3217 79.8137 16.3253 78.216 18.2289C77.806 18.7171 77.7698 18.7044 77.3092 19.1092C75.6419 20.5754 72.345 20.9986 70.1026 20.9986H70.0215H67.6285C64.178 20.9321 59.9584 20.3603 59.9584 16.3862C59.9584 13.3122 61.9429 7.55762 63.0424 4.87707C63.7855 3.06409 64.5706 1.95734 66.6275 1.11949C68.3368 0.424586 70.5459 0 72.9157 0H73.0258ZM30.0299 5.20117V12.6583H25.7118L28.8928 7.03397C29.097 6.67731 29.7779 5.38233 30.0299 5.20117ZM14.3624 20.7056H21.0909C21.23 20.1239 23.3637 16.89 23.5013 16.3876H29.9285V20.7056H35.8545V0.196725H29.4273C27.3733 0.196725 25.4713 2.56733 24.4863 4.10291C21.7398 8.38273 18.7442 13.5004 16.0253 17.9161C15.724 18.4044 15.4937 18.7794 15.1967 19.2649C14.9867 19.6102 14.4507 20.3829 14.3624 20.7056ZM38.4663 20.7056H44.6936L47.3053 12.2663C47.6255 12.4956 48.4757 14.7784 48.7148 15.3063C48.8712 15.6531 49.0595 16.0635 49.2015 16.4017L51.0223 20.7056H57.1482C56.8976 20.2428 56.7354 19.7942 56.479 19.2988L53.059 12.337C52.7577 11.6464 51.7813 10.0882 51.7248 9.42155C52.0986 9.3239 52.1275 9.14982 52.4042 8.9078C52.6838 8.66296 52.82 8.60069 53.1053 8.31763L59.1805 3.06692C59.4514 2.82208 59.6021 2.75273 59.8845 2.47958C60.3394 2.0366 62.2964 0.501011 62.5716 0.100485C60.8667 0.100485 59.1516 0.117469 57.4481 0.09907C56.3544 0.0877477 56.663 0.0339669 55.7692 0.911444C55.4896 1.18601 55.3361 1.25111 55.0638 1.49737C54.8233 1.71391 54.6451 1.90639 54.4119 2.13708C53.282 3.25233 51.5365 4.68884 50.3922 5.76587C50.0199 6.11686 49.5042 6.84149 49.0132 6.97028L50.0547 3.57218C50.2531 2.98201 50.4313 2.39891 50.608 1.85685C50.7978 1.27659 50.9817 0.692074 51.1223 0.101901H44.8949C44.7284 0.438738 44.6183 0.965224 44.4807 1.36433C44.3459 1.75071 44.2127 2.21775 44.0794 2.64092L39.6729 16.7839C39.5541 17.207 39.4122 17.6628 39.2847 18.0718C39.0095 18.9408 38.6807 19.8069 38.4663 20.7056ZM0.09995 19.9201V17.4674C0.948801 18.0237 0.588112 18.5841 1.00385 19.4304C0.657642 19.6088 0.421528 19.7093 0.09995 19.9201ZM0.602597 16.1909C1.13422 15.9163 1.67887 15.5823 2.20904 15.3077C3.16798 15.9347 3.33312 16.3197 3.4939 16.9962C3.56923 17.3146 3.71553 17.5736 3.71553 17.8595C3.71553 18.0137 2.24525 18.7794 2.00769 18.8403C1.97872 18.4935 1.88601 18.3662 1.80634 18.0562C1.43407 16.6055 1.60499 17.6543 0.602597 16.1909ZM0.301299 15.7012C-0.156444 14.7685 0.153546 14.7798 0.872028 14.3934C1.13422 14.2533 1.56878 13.9972 1.80779 13.9335C1.80779 14.4543 1.81214 14.5123 1.90774 14.9143C1.40654 15.0459 0.808291 15.5851 0.301299 15.7012ZM1.90774 12.6583C1.90774 13.9774 1.82228 13.6844 0.1999 14.5222C0.21004 14.0948 0.29985 13.9873 0.29985 13.4424C0.563486 13.3065 0.840159 13.1933 1.098 13.0461C1.37323 12.8904 1.53836 12.7432 1.90774 12.6583ZM4.51948 12.855C4.51948 13.2244 4.58611 13.0404 4.61943 13.4438L3.01299 14.2293C2.91738 13.8273 2.91304 13.7693 2.91304 13.2485C3.4012 13.1367 4.14286 12.5677 4.39201 12.5323C4.83961 12.4672 4.51948 12.705 4.51948 12.855ZM8.93901 11.6775C9.52132 11.3761 10.066 11.0944 10.6468 10.7944L11.3407 11.5884C11.7955 11.996 11.7724 12.1332 11.8665 12.6442C11.9361 13.022 12.0433 13.1013 12.0534 13.5414C11.3682 13.6971 10.9684 14.1854 10.3455 14.3269C9.68936 11.577 9.68501 13.0659 8.93901 11.6775ZM4.62088 12.1672L3.01299 13.0503C3.01299 11.744 3.16219 11.8941 4.72083 11.0873C4.72083 11.5855 4.62088 11.6237 4.62088 12.1672ZM0.09995 12.9527V11.9719C0.459191 11.7851 1.24431 11.2812 1.60644 11.1864C1.58761 11.4129 1.55285 11.6181 1.50939 11.8771C1.41668 12.4319 1.38481 12.2281 0.682267 12.6399C0.462088 12.7701 0.318681 12.8395 0.09995 12.9527ZM2.21049 11.7752C2.21339 11.6591 2.3032 11.0123 2.33506 10.9161C2.46398 10.5382 3.90819 9.92681 4.31958 9.71452C4.31958 10.3146 4.3442 10.633 3.99076 10.8651C3.86328 10.9486 3.72422 10.9982 3.5982 11.0704C3.29545 11.243 2.50599 11.7072 2.21049 11.7752ZM0.09995 11.2841V10.3033C0.386763 10.1547 0.540309 10.0825 0.802497 9.91124C0.802497 10.1547 0.751798 10.5778 0.696753 10.7901C0.604046 11.1624 0.496853 11.1949 0.09995 11.2841ZM5.02213 10.3033C5.02213 9.23615 5.11194 9.24606 5.72467 8.92903V9.90983C5.46249 10.0825 5.30894 10.1547 5.02213 10.3033ZM0.09995 10.1066V9.02669C0.411388 8.95592 0.391109 8.90073 0.702547 8.82996C1.08496 9.60837 0.940109 9.67347 0.09995 10.1066ZM1.80779 10.4009C1.80779 9.0465 1.92947 9.30974 3.61558 8.43793C3.27083 9.88577 3.98641 9.27578 1.80779 10.4009ZM13.0572 8.92903C12.5807 9.03801 12.0302 9.55884 11.3494 9.71452C11.106 8.69268 11.1307 8.83987 12.8559 7.94824C12.9066 8.54408 12.8298 8.51011 13.0572 8.92903ZM4.51948 8.92903C4.62088 8.7224 4.72083 8.0742 4.72083 7.75152C5.12932 7.65811 5.42337 7.45855 5.72467 7.26041V8.33886C5.45814 8.47756 4.76863 8.86535 4.51948 8.92903ZM0.09995 8.43934V7.94824C0.685165 8.36716 0.266533 8.22847 0.09995 8.43934ZM2.00914 9.0281C2.00914 8.50586 1.94106 8.43368 1.90919 8.04731C3.21289 7.7501 3.61703 6.4169 3.61703 8.24404C3.15784 8.36292 2.46688 8.9078 2.00914 9.0281ZM13.9611 7.35948C14.3479 7.15851 15.2851 6.57541 15.669 6.47634C15.669 6.99717 15.6733 7.0552 15.7689 7.45714C15.5082 7.52507 14.894 7.88172 14.6434 8.0374C13.8481 8.52851 14.2132 7.87182 13.9611 7.35948ZM12.9558 7.75152C12.2736 7.9072 11.9303 8.38132 11.248 8.537C11.5652 7.89163 11.1698 7.64395 11.7724 7.28306C12.1055 7.0835 12.6734 6.7594 13.0558 6.67165C13.0471 7.09907 12.9558 7.20805 12.9558 7.75152ZM4.62088 6.574C5.11773 6.46078 5.32922 6.18621 5.72467 6.08289V7.06369C5.36398 7.2505 5.15684 7.45572 4.72083 7.55479C4.76139 7.08492 4.80774 6.98443 4.62088 6.574ZM0.09995 5.1021C0.09995 4.96057 0.711238 4.6945 0.883616 4.5926C1.17622 4.41852 1.4022 4.25293 1.80779 4.21896C1.99755 6.43813 2.96518 5.95835 3.21433 6.86838C2.88262 6.94339 2.67982 7.07359 2.37562 7.22645C2.00914 7.41043 1.88746 7.56611 1.50649 7.65386C1.13566 7.41185 1.2472 7.33684 0.653296 6.81884L0.09995 5.1021ZM14.0611 7.0651C14.0712 6.6391 14.161 6.53013 14.161 5.98524C14.7448 5.68378 15.2895 5.40214 15.8689 5.1021C15.8529 5.296 15.8051 5.64699 15.7617 5.88051C15.6849 6.30085 15.6646 6.22867 15.3054 6.41549C14.8578 6.64901 14.4913 6.8429 14.0611 7.0651ZM13.3585 5.78993C13.3585 4.60109 13.4976 4.76668 14.0799 4.43409C14.3812 4.26142 15.1707 3.79721 15.4676 3.72928C15.4633 3.7873 15.359 4.53174 15.3416 4.58694C15.217 4.98605 13.7612 5.58047 13.3585 5.78993ZM16.8727 5.59321C16.8727 4.21189 17.1117 4.47796 17.9968 3.94298C18.2604 3.78306 18.3459 3.70663 18.6805 3.63021C18.3662 4.26991 18.8181 4.50344 18.0895 4.91812C17.71 5.13465 17.2464 5.34836 16.8727 5.59321ZM2.81164 3.53255C3.3954 3.2311 3.93861 2.94945 4.51948 2.64941C4.71069 3.04003 4.70924 3.72078 4.96853 4.17368C5.33936 4.81905 5.72467 4.46381 5.72467 5.49555C5.39006 5.57198 5.30459 5.6484 5.04096 5.80833C4.78456 5.9626 4.57163 6.05176 4.31958 6.18196C2.81019 5.19551 3.1028 4.16943 2.81164 3.53255ZM16.0702 4.31803C16.373 3.05135 15.6501 3.5651 18.1793 2.25738C18.1793 2.85746 18.2039 3.1759 17.8505 3.40801C17.723 3.49151 17.584 3.54104 17.4579 3.61322C17.161 3.78164 16.357 4.24302 16.0702 4.31803ZM5.62472 2.06066C5.7435 2.24464 5.73771 1.84129 5.70729 2.25738C5.6928 2.46684 5.6957 2.34513 5.62472 2.4541V2.06066ZM15.6675 2.94379C16.0036 1.53558 15.275 2.11868 17.4753 0.980793C17.4753 2.33664 17.3536 2.07198 15.6675 2.94379ZM15.5676 9.91124L14.4623 8.73372C14.9939 8.45916 15.5386 8.12515 16.0688 7.85059C16.3324 8.02325 16.3498 8.07703 16.6714 8.24262C17.0074 7.62273 17.387 6.94622 17.7752 6.37869C17.4029 6.47493 17.3029 6.67307 16.8713 6.77072C16.7322 6.18763 16.8785 6.28811 16.7713 5.78993C17.2392 5.68378 17.5477 5.39507 17.9765 5.19551C18.7703 4.82471 18.398 5.39224 18.9384 4.47372L20.2855 2.15972C19.8336 2.26304 19.2889 2.63385 18.879 2.84614C18.8891 2.41872 18.9789 2.31116 18.9789 1.76628L20.7577 0.863324C21.0431 0.806712 20.9214 1.24687 21.4907 0.195309H20.0842C20.074 0.652446 20.2623 0.478366 19.4396 0.939749C19.06 1.15346 18.8123 1.25111 18.4763 1.47048C18.4763 0.959563 18.5472 0.530732 18.7776 0.195309H17.4724C17.4724 0.704812 17.5564 0.701981 16.8655 1.07562C16.6221 1.20724 16.1108 1.50586 15.8645 1.56955C15.8645 1.04873 15.8602 0.989284 15.7646 0.588759C16.1412 0.503841 16.2194 0.406187 16.4671 0.196725H14.7593C14.642 0.690659 14.2929 0.900121 14.1567 1.4719C14.3638 1.36433 14.3942 1.33603 14.6593 1.27517C14.7549 1.67711 14.7593 1.73655 14.7593 2.25596C14.2972 2.3607 14.2074 2.52062 13.8192 2.71876C13.2687 2.99899 13.276 2.73292 13.1514 3.23817C13.4469 3.16033 14.3971 2.62394 14.6579 2.45269C14.6579 3.02588 14.5579 3.13769 14.5579 3.63021C14.1886 3.71512 13.3875 4.18924 12.9515 4.41569C12.9515 3.87222 13.0428 3.76324 13.0514 3.33583L11.7463 5.69086C12.0621 5.5281 12.3214 5.36959 12.6502 5.19976C12.6502 6.38152 12.4184 6.36171 12.0172 6.54286C10.8627 7.06652 10.8366 7.10473 10.402 7.91286C10.1674 8.34735 10.221 8.2129 10.2108 8.55964C10.1732 9.86171 9.62997 9.00687 9.43731 9.71169C9.73136 9.64517 9.90229 9.54044 10.1399 9.41731C10.1399 9.93813 10.1442 9.99616 10.2398 10.3981C9.89795 10.575 9.09111 11.1454 8.68986 11.1015C8.67972 11.1001 8.65075 11.0944 8.63336 11.0845L7.82942 12.4588C8.59135 12.6569 9.23596 13.9604 9.23596 15.0105C8.65509 15.3106 8.09885 15.5993 7.52812 15.8937C7.51653 15.37 7.32532 14.2576 6.82557 14.1274C6.71403 14.593 6.41273 14.7543 6.28671 15.1761C6.18242 15.5271 6.48226 15.997 6.52427 16.4824C6.17952 16.5602 5.1974 17.1688 4.81643 17.3655C4.73966 17.0457 4.47023 15.9913 4.32972 15.7804C4.1023 15.4393 3.52722 15.0487 3.40989 14.6185C3.66918 14.559 4.71214 13.9915 5.01633 13.833C5.36398 14.0594 5.55809 14.3241 5.82028 14.6185V0.196725H0V20.7056C1.87442 20.7056 3.7503 20.7028 5.62472 20.7056C6.85744 20.707 7.13556 20.7056 8.00324 20.2824C9.77627 19.4177 11.0365 17.592 11.9839 15.929C12.6705 14.719 13.4136 13.6575 14.0611 12.4616C13.7163 12.5394 13.4426 12.7064 13.1572 12.8536C12.9312 12.3937 12.9544 11.6945 12.6719 11.2671C12.3924 10.8453 11.8028 10.7095 11.7521 10.1051C12.4373 9.94945 12.8371 9.46118 13.4599 9.31965C13.6787 9.63809 13.9017 9.8886 14.1915 10.1745C14.4956 10.4745 14.6217 10.8708 14.6651 11.3803C14.881 11.2275 15.4966 10.2113 15.5676 9.91124ZM14.161 1.4719H14.0611L14.1451 1.58653L14.161 1.4719ZM14.161 12.2663H14.0611L14.1451 12.3809L14.161 12.2663ZM15.5676 9.91124H15.6675L15.5835 9.7966L15.5676 9.91124ZM11.7506 5.69086H11.6507L11.7347 5.8055L11.7506 5.69086ZM14.161 12.2663H14.261L14.177 12.1516L14.161 12.2663ZM8.63771 11.0888H8.73766L8.65364 10.9741L8.63771 11.0888ZM9.44021 9.71452H9.34026L9.42427 9.82915L9.44021 9.71452ZM20.2884 2.15831H20.3884L20.3043 2.04367L20.2884 2.15831ZM5.92602 15.7988C5.93616 15.8087 5.95644 15.755 5.95644 15.7691C5.95354 15.7719 5.91588 15.7889 5.92602 15.7988ZM13.8597 1.86393L13.8902 1.83421C13.8887 1.83704 13.851 1.85402 13.8597 1.86393ZM8.73766 10.892L8.76808 10.8623C8.76663 10.8651 8.72752 10.8821 8.73766 10.892ZM14.4623 11.7752L14.4928 11.7455C14.4913 11.7483 14.4522 11.7653 14.4623 11.7752ZM7.73381 12.6583L7.76423 12.6286C7.76133 12.6314 7.72367 12.6484 7.73381 12.6583ZM7.23117 13.5414L7.26159 13.5117C7.26014 13.5146 7.22103 13.5315 7.23117 13.5414ZM13.3585 2.74707L13.389 2.71735C13.3861 2.72018 13.3484 2.73716 13.3585 2.74707ZM14.2624 12.0696L14.2929 12.0398C14.29 12.0427 14.2523 12.0596 14.2624 12.0696ZM11.4493 6.08431L11.4798 6.05459C11.4769 6.056 11.4392 6.0744 11.4493 6.08431ZM18.0779 5.78993L18.1083 5.76021C18.1069 5.76163 18.0692 5.78002 18.0779 5.78993ZM20.6897 1.4719L20.7201 1.44218C20.7172 1.44501 20.6795 1.46199 20.6897 1.4719ZM7.43251 13.1494L7.46293 13.1197C7.46004 13.1225 7.42237 13.1395 7.43251 13.1494ZM20.3884 1.963L20.4188 1.93328C20.4159 1.93469 20.3782 1.95309 20.3884 1.963ZM13.7598 2.06066L13.7902 2.03093C13.7873 2.03376 13.7496 2.05075 13.7598 2.06066ZM8.93901 10.5L8.96798 10.4703C8.96653 10.4717 8.92887 10.4901 8.93901 10.5ZM9.94285 8.73372L9.97327 8.704C9.97182 8.70542 9.93271 8.72382 9.94285 8.73372ZM16.1702 8.92903L16.2006 8.89931C16.1977 8.90214 16.16 8.91913 16.1702 8.92903ZM16.4715 8.43934L16.5019 8.40962C16.499 8.41104 16.4613 8.42944 16.4715 8.43934ZM6.92987 14.0326L6.96029 14.0028C6.95884 14.0057 6.91973 14.0226 6.92987 14.0326ZM9.8429 8.92903L9.87332 8.89931C9.87043 8.90214 9.83276 8.91913 9.8429 8.92903ZM9.64155 9.32248L9.67197 9.29276C9.67052 9.29418 9.63141 9.31258 9.64155 9.32248ZM11.148 6.67307L11.1785 6.64335C11.177 6.64476 11.1379 6.66316 11.148 6.67307ZM7.33256 13.3447L7.36298 13.315C7.36009 13.3178 7.32242 13.3362 7.33256 13.3447ZM9.14036 10.2056L9.17078 10.1759C9.16788 10.1773 9.13022 10.1957 9.14036 10.2056ZM10.9481 6.96745L10.9786 6.93773C10.9757 6.93914 10.938 6.95754 10.9481 6.96745ZM8.83906 10.6953L8.86948 10.6656C8.86658 10.6684 8.82892 10.6868 8.83906 10.6953ZM15.7689 9.61686L15.7993 9.58714C15.7964 9.58856 15.7588 9.60695 15.7689 9.61686ZM14.5637 11.5799L14.5927 11.5501C14.5913 11.5516 14.5536 11.57 14.5637 11.5799ZM20.5897 1.66862L20.6201 1.6389C20.6172 1.64032 20.5796 1.65871 20.5897 1.66862ZM13.6598 2.25738L13.6903 2.22766C13.6874 2.22907 13.6497 2.24747 13.6598 2.25738ZM20.891 1.17752L20.9214 1.1478C20.9185 1.15063 20.8809 1.16761 20.891 1.17752ZM5.82462 15.9941L5.85504 15.9644C5.85359 15.9672 5.81593 15.9856 5.82462 15.9941ZM15.8689 9.42014L15.8993 9.39042C15.8964 9.39325 15.8587 9.41023 15.8689 9.42014ZM9.24031 10.0089L9.27073 9.97917C9.26783 9.98201 9.23017 9.99899 9.24031 10.0089ZM18.3792 5.29883L18.4096 5.26911C18.4082 5.27194 18.3691 5.28892 18.3792 5.29883ZM18.1793 5.59321L18.2097 5.56349C18.2068 5.56632 18.1692 5.5833 18.1793 5.59321ZM9.74295 9.12576L9.77337 9.09604C9.77048 9.09887 9.73281 9.11585 9.74295 9.12576ZM16.0702 9.12576L16.1006 9.09604C16.0977 9.09887 16.0601 9.11585 16.0702 9.12576ZM11.2494 6.47634L11.2799 6.44662C11.277 6.44945 11.2393 6.46644 11.2494 6.47634ZM17.978 5.98524L18.0084 5.95693C18.0055 5.95835 17.9678 5.97533 17.978 5.98524ZM11.3494 6.27962L11.3798 6.2499C11.3769 6.25273 11.3393 6.26971 11.3494 6.27962ZM17.7766 6.27962L17.807 6.2499C17.8056 6.25273 17.7665 6.26971 17.7766 6.27962ZM126.569 16.8787C125.747 16.8787 125.127 16.5772 124.823 16.0338C124.407 15.2907 124.684 14.7175 124.853 13.9278C125.317 11.7624 126.553 8.0275 127.371 5.98666C127.691 5.18702 127.791 4.99171 128.56 4.59826C129.879 3.92317 134.101 3.72361 134.101 5.49697C134.101 7.40477 132.192 12.5253 131.375 14.5109C131.152 15.0544 131.019 15.7082 130.562 16.072C129.693 16.7612 128.119 16.8787 126.569 16.8787ZM128.195 21H125.802C122.35 20.9335 118.132 20.3617 118.132 16.3876C118.132 13.3872 120.761 4.38031 122.573 2.57299C124.491 0.659523 128.126 0 131.088 0H131.21H131.589C134.192 0.00283057 138.134 0.0820865 139.785 2.00121C141.014 3.42782 140.74 4.18358 140.628 5.49555C140.761 5.34553 140.585 5.57198 140.766 5.33562C140.819 5.26628 140.838 5.23939 140.887 5.16154L141.51 4.20057C141.8 3.77457 142.067 3.3981 142.41 3.0188C143.908 1.36292 145.786 0.551961 148.1 0.236353C149.25 0.079256 159.626 0.196725 161.316 0.196725C161.306 0.646785 161.117 1.01759 160.993 1.45208C160.809 2.1017 159.92 4.64497 159.91 5.10352H154.586L153.394 9.04084C152.964 10.3571 152.596 11.6775 152.189 12.9654L149.766 20.7056H143.338C143.446 20.4863 143.556 20.0164 143.653 19.7376L145.185 14.8562C145.603 13.6419 147.968 5.69794 148.259 5.10352C145.398 5.10352 142.743 4.9634 140.851 6.7962C140.189 7.43732 140.311 7.259 140.081 8.30065C139.768 9.71876 139.08 12.245 138.629 13.4579C137.766 15.7833 137.327 17.5212 135.426 19.1601C134.753 19.7404 133.429 20.3603 132.348 20.5683C131.139 20.8019 129.637 21.0014 128.272 21.0014H128.195V21ZM168.451 16.8787C167.629 16.8787 167.011 16.5772 166.705 16.0338C166.289 15.2907 166.566 14.7175 166.735 13.9278C167.199 11.7624 168.435 8.0275 169.253 5.98666C169.573 5.18702 169.673 4.99171 170.444 4.59826C171.762 3.92317 175.984 3.72361 175.984 5.49697C175.984 7.0552 173.315 15.3799 172.446 16.072C171.575 16.7612 170 16.8787 168.451 16.8787ZM173.08 0H174.162C176.174 0.00707643 178.28 0.0905782 179.868 0.816619C180.46 1.08694 181.246 1.51011 181.669 2.00121C182.048 2.44137 182.612 3.27922 182.612 4.02366C182.612 7.19248 180.708 13.0914 179.57 15.8696C179.154 16.8858 178.929 17.4448 178.27 18.2303C176.374 20.4919 173.121 21 170.157 21H170.076H167.683C164.232 20.9335 160.013 20.3617 160.013 16.3876C160.013 13.3136 161.997 7.55904 163.097 4.87849C163.841 3.06551 164.625 1.95875 166.682 1.12091C168.391 0.424586 170.6 0 172.97 0H173.08ZM194.362 10.5977H190.747C190.761 9.98059 192.64 4.67044 192.656 4.02224H196.774C198.415 4.02224 198.925 7.0835 197.151 9.00263C196.494 9.71027 195.953 10.5977 194.362 10.5977ZM181.406 20.7056H187.532C187.732 20.2994 187.847 19.797 187.999 19.296L189.34 14.9157H193.157L194.174 17.7491C194.474 18.6336 194.949 19.7998 195.166 20.7056H201.192L199.083 14.3269C202.221 12.705 204.406 8.58229 204.406 4.90679C204.406 1.98706 201.537 0.181156 198.483 0.193894C194.901 0.209462 191.316 0.196725 187.735 0.196725L181.796 19.4177C181.676 19.7998 181.499 20.315 181.406 20.7056ZM207.621 5.98524C207.073 8.25111 207.017 11.3081 209.61 12.3894C211.919 13.3518 216.082 12.8579 216.626 13.1834C217.716 13.8358 217.181 15.3148 215.433 15.6799C213.809 16.0182 207.025 15.8979 205.11 15.8979L203.905 20.7056C207.411 20.7056 214.687 21.0212 217.254 20.3037C218.972 19.8239 220.226 18.9195 221.139 17.4278C222.973 14.4302 224.567 9.5645 219.4 8.60918C218.355 8.41529 215.707 8.44076 214.251 8.34027C213.296 8.27517 212.501 7.58734 213.105 6.34048C213.718 5.07521 215.933 5.10352 217.362 5.10352C219.839 5.10352 222.318 5.10352 224.795 5.10352L226 0.09907C223.188 0.09907 220.375 0.09907 217.564 0.09907C214.962 0.09907 212.715 0.103316 210.754 0.818035C208.47 1.65022 204.771 5.11342 204.989 7.63122C205.348 7.61706 206.143 6.32208 207.621 5.98524ZM91.9192 14.719C92.503 14.4175 93.0477 14.1359 93.6271 13.8358C94.4788 15.0784 94.4846 13.8627 95.1336 16.5829C94.6947 16.6834 93.7966 17.3429 93.3258 17.466C93.2823 16.9537 93.1157 16.2234 92.8695 15.8512C92.7073 15.6063 92.6015 15.5228 92.3973 15.3318C92.3118 15.2511 92.209 15.1676 92.1409 15.0912C91.8584 14.7812 92.0453 14.9539 91.9192 14.719ZM92.6218 12.6583C92.9332 12.5875 92.9129 12.5323 93.2244 12.4616C93.1693 12.6923 93.1099 12.7446 93.1418 13.0433C93.1751 13.356 93.1751 13.1749 93.194 13.2584C93.2693 13.5938 93.2635 13.5018 92.419 13.9321C92.0554 14.1175 91.983 14.2873 91.5165 14.3255C91.3891 13.7368 91.6542 13.8302 91.4166 13.3447C91.5861 13.2626 91.5933 13.2541 91.7179 13.148H91.5165L91.6165 11.9705L93.3243 11.0873C93.3243 11.5784 93.2244 11.6917 93.2244 12.2649C92.9187 12.4248 92.8231 12.3894 92.6218 12.6583ZM95.5348 11.0888L95.9332 10.9784C95.9375 11.536 96.0042 11.6676 96.0375 12.0696C95.0611 12.2917 94.2427 13.4523 94.2181 12.2606C94.2051 11.6421 94.347 11.9577 94.6309 11.5784L94.2326 11.6888C94.5542 10.1872 93.9921 10.725 96.1374 9.61545C96.0693 9.90275 96.0722 10.1547 95.9998 10.4632C95.8607 11.059 95.8202 10.7066 95.5348 11.0888ZM102.966 8.73372C104.083 8.48039 104.601 7.07218 105.78 8.92762C105.959 9.20643 106.17 10.149 106.18 10.5977C105.601 10.8977 105.056 11.1793 104.472 11.4808C103.965 10.449 104.661 10.5 103.442 9.34654C103.356 9.26446 103.256 9.18095 103.186 9.10594C102.907 8.79458 103.093 8.96866 102.966 8.73372ZM93.5257 10.4009C93.5358 9.97351 93.6256 9.86595 93.6256 9.32107L95.7347 8.2412C95.7347 8.81156 95.6956 9.26021 95.374 9.45976C95.2523 9.53619 95.1307 9.56874 94.9742 9.6579C94.6367 9.84897 93.8473 10.3287 93.5257 10.4009ZM96.3373 8.92903L96.4576 7.75293L98.4464 6.76931C98.4464 8.07986 98.3494 7.89021 96.3373 8.92903ZM103.369 6.86838C103.713 6.79054 103.987 6.62353 104.272 6.47634C104.272 7.02123 104.339 7.15285 104.372 7.55621C104.055 7.62839 103.493 7.98787 103.166 8.15487C102.41 8.53983 102.565 8.1945 102.565 7.35948C102.883 7.19531 103.164 7.14153 103.369 6.86838ZM96.6386 5.98524C96.9877 5.90598 97.4411 5.65123 97.7439 5.49414C97.7337 5.92155 97.6439 6.02911 97.6439 6.574C97.1152 6.91933 96.5126 7.25758 95.9361 7.55479C95.9361 5.92297 96.2852 6.45653 96.6386 5.98524ZM103.369 6.86838C102.985 6.95613 102.949 7.07643 102.565 7.16276C103.143 5.98666 101.68 6.54711 104.472 5.1021C104.365 6.35746 104.278 6.33623 103.838 6.54286C103.495 6.70562 103.563 6.60938 103.369 6.86838ZM96.6386 5.98524C96.3272 6.056 96.3475 6.1112 96.036 6.18196C96.1331 5.97675 96.0693 5.47291 95.9361 5.20117C96.3257 5.0002 97.2832 4.41144 97.6439 4.31803C97.7019 4.55863 97.8482 4.85726 97.7743 5.13748C97.6714 5.5281 97.767 5.25071 97.6367 5.38233C97.3846 5.63283 96.9196 5.61161 96.6386 5.98524ZM111.302 4.31803C111.682 4.12131 112.665 3.51274 113.01 3.4349C113.38 3.67691 113.765 4.03356 114.033 4.39871C114.236 4.67469 114.517 5.53518 114.517 5.98666C114.517 6.21169 112.941 6.93773 112.809 6.96745C112.577 6.49616 112.606 5.90881 112.28 5.42337C111.985 4.97756 111.586 4.7313 111.302 4.31803ZM99.5517 4.41569C99.9891 4.3152 100.118 4.12273 100.555 4.02366C100.493 4.28831 100.476 4.56288 100.403 4.85584C100.26 5.42337 99.5748 5.60594 98.6478 6.08431C98.7115 5.81682 98.7622 5.1856 98.8433 5.0002C99.0577 4.51193 99.1997 4.88556 99.5517 4.41569ZM103.971 4.80772C103.609 5.04408 102.256 5.79701 101.862 5.88759C101.868 5.63 101.913 5.21533 101.946 5.08795C102.094 4.55156 103.632 3.95572 104.071 3.72928C104.038 4.13122 103.971 4.26284 103.971 4.80772ZM99.5517 4.41569C99.2576 4.48221 99.0867 4.58694 98.8491 4.71007C98.8491 4.16518 98.7825 4.03215 98.7492 3.63021C99.3706 3.48868 99.7718 3.00182 100.457 2.84472C100.553 3.24666 100.557 3.30611 100.557 3.82552C100.219 4.00101 99.7718 4.12273 99.5517 4.41569ZM101.461 4.51334C101.494 3.06409 101.874 3.29195 102.585 2.86312C102.849 2.70461 102.934 2.62677 103.269 2.55034C103.269 2.89709 103.248 3.10797 103.188 3.35423C103.04 3.96138 102.947 3.71654 102.145 4.19915C101.881 4.36049 101.795 4.43692 101.461 4.51334ZM114.115 2.74707C114.401 2.68197 115.565 2.03235 115.823 1.86393C116.107 2.27861 116.537 2.51213 116.847 2.92398C117.037 3.17448 117.296 4.22038 117.33 4.61241L115.522 5.49555C115.347 3.44197 114.744 3.91751 114.115 2.74707ZM103.369 2.35503C102.665 2.51496 102.253 3.08391 101.561 3.14052C101.793 2.66923 101.6 2.62111 101.561 2.15972C102.085 1.88799 102.828 1.41104 103.269 1.37424L103.369 2.35503ZM112.308 2.06066C112.503 2.0097 112.463 2.04226 112.609 1.963L112.676 3.04569L111.536 3.67408C110.762 4.09867 110.901 3.54387 110.901 2.84614C111.195 2.77679 111.046 2.85888 111.202 2.64941H111.001C111.001 2.07622 111.101 1.96442 111.101 1.4719C111.783 1.31622 112.125 0.842095 112.809 0.686413C112.697 2.00263 112.516 1.78184 112.308 2.06066ZM114.315 0.980793C114.004 1.05156 114.024 1.10534 113.713 1.17752C113.745 0.799636 113.813 0.860493 113.813 0.393449L115.219 0.491104H115.421C115.412 0.854832 115.365 0.803882 115.392 1.03882C115.419 1.2964 115.471 1.35726 115.522 1.57097C114.156 1.88233 113.714 3.28346 113.714 1.37424C114.02 1.21573 114.114 1.2497 114.315 0.980793ZM96.9399 0.588759C97.5179 0.290133 98.0061 0.392034 98.8477 0.392034C99.2677 2.15265 99.908 1.5554 100.153 2.45269C99.7907 2.53478 99.5618 2.68904 99.2677 2.86312C98.952 3.05277 98.6593 3.17307 98.345 3.33441C98.0553 2.27012 97.3252 3.51557 96.9399 0.588759ZM116.627 0.885968C116.516 0.680752 116.487 0.649616 116.424 0.392034H117.528L116.627 0.885968ZM94.6309 7.0651C94.8265 7.01415 94.7859 7.0467 94.9322 6.96745C94.9322 7.2873 94.9076 7.60433 94.8699 7.78973C94.77 8.26385 94.7946 8.15487 94.4426 8.35443C94.1746 8.50728 93.4214 8.95168 93.1244 9.02952C93.1346 8.6021 93.2244 8.49454 93.2244 7.94966C93.4417 7.80671 93.5706 7.76425 93.727 7.55762L93.3287 7.66801C93.3243 7.12879 93.4417 7 93.1244 6.77355C93.1085 7.48261 92.2365 9.40032 92.2205 10.1094C92.4871 9.9721 92.658 9.85463 92.9231 9.71735C92.9231 10.3684 92.9274 10.7774 92.4595 11.0307C91.9265 11.318 91.6788 11.2543 91.6179 11.9747C91.4166 12.2833 90.6909 15.0473 90.5127 15.4096L91.0081 15.5073C91.0327 15.5214 91.1356 15.6191 91.166 15.6502C91.8396 16.3522 92.2944 16.9056 92.3205 18.059C91.7498 18.3534 91.195 18.6421 90.6126 18.9422C90.265 18.2331 90.4099 17.6005 89.9101 17.2736C89.884 17.5764 89.6943 18.1454 89.5929 18.4412C89.3466 19.1573 89.4364 18.8106 89.6088 19.5309C89.4495 19.6031 89.5552 19.5479 89.4118 19.5819C89.4002 19.5847 89.3654 19.5918 89.3539 19.5946C89.3423 19.5975 89.3119 19.6045 89.3017 19.6059C89.2916 19.6074 89.2597 19.6144 89.2539 19.6159C89.2467 19.6173 89.222 19.6201 89.209 19.6272C89.1206 19.998 88.9381 20.4466 88.9077 20.8047H95.135C95.3204 20.4254 95.4059 19.9796 95.5493 19.5408L96.7415 15.7012L96.1403 15.9998C95.6188 13.8471 95.8912 14.6114 95.1104 13.8599C94.9873 13.741 94.7251 13.3829 94.6324 13.2485C95.0162 13.148 95.9535 12.5649 96.3402 12.3653L97.4237 13.3674C97.5802 13.0716 97.767 12.4036 97.8467 12.071C97.4962 11.979 97.6207 12.0342 97.4455 11.7766C98.0669 11.4553 98.064 11.57 98.2494 10.7958C98.1002 10.8736 97.5266 11.2345 97.3948 11.2558C96.8834 11.3393 97.0442 10.8 97.0442 10.3047C97.4092 10.2212 97.3658 10.2509 97.5469 10.0103C97.2832 10.0698 97.2514 10.0995 97.0442 10.207C97.05 9.95228 97.0877 9.83623 97.1108 9.68338L97.1673 9.34654C97.3209 8.73797 97.3397 8.97998 98.0061 8.59644C98.3291 8.40962 98.542 8.30772 98.852 8.1478C98.852 8.33744 98.8361 8.55681 98.952 8.73655C98.9664 8.10817 99.2388 7.9907 99.2533 7.36231C98.9491 7.52932 99.1403 7.41468 99.0519 7.36231C99.2083 7.04529 99.1519 6.82733 99.1519 6.38152L101.261 5.30166C101.258 5.43328 101.239 5.60453 101.232 5.70926C101.2 6.20886 101.233 6.31925 100.761 6.57824C100.542 6.69854 100.344 6.77497 100.086 6.90801C99.9761 6.96462 99.8559 7.03397 99.7805 7.07076L99.682 7.11605C99.6733 7.1203 99.6458 7.13162 99.6371 7.13445L99.5546 7.16559C99.6951 7.45006 99.6197 7.35948 99.682 7.72746L99.8254 8.27517C99.8312 8.29074 99.8428 8.32188 99.8559 8.34311C100.156 7.08633 99.6748 7.76001 101.055 6.96462C101.267 6.8429 101.37 6.74242 101.664 6.6759C101.656 7 101.622 7.06227 101.574 7.37363C101.509 7.81096 101.556 7.6666 101.362 7.95107L101.558 8.05722C101.509 8.69834 101.326 8.40679 101.664 9.03093C101.08 9.16397 100.89 9.51496 100.261 9.6763L100.104 9.70885C100.096 9.71027 100.07 9.71169 100.057 9.71735C100.199 10.0075 100.157 9.99191 100.157 10.4038C100.331 10.2254 100.327 10.2368 100.557 10.108C100.724 10.0146 100.816 9.96502 101.003 9.85604C101.307 9.67913 101.623 9.49939 101.965 9.42297C103.018 10.1122 103.198 10.926 103.471 12.0724L101.664 12.9555C101.64 12.6795 101.359 11.6704 101.261 11.485C101.139 11.26 100.974 11.1779 100.792 10.9614C100.532 10.6543 100.679 10.6118 100.257 10.5014L101.086 14.893C101.162 15.2624 101.352 15.963 101.362 16.389H102.869C103.551 15.3941 108.667 9.69187 108.795 9.22483C108.501 9.29135 107.545 9.84331 107.288 10.0103C107.077 9.58006 107.015 8.78043 106.8 8.42661C106.552 8.01759 106.108 7.86474 105.782 7.26324C106.073 7.11322 106.335 7.00991 106.644 6.82875C106.973 6.63627 107.199 6.46927 107.59 6.38011C108.227 7.30995 108.301 7.08633 108.544 7.41043C108.663 7.56894 108.974 8.78609 108.996 9.02952C109.198 8.88516 109.839 8.08694 110 7.852C109.535 7.66801 109.9 7.30146 109.474 6.79478C109.253 6.53154 108.87 6.05884 108.594 5.98666V5.69228C109.279 5.5366 109.678 5.04832 110.301 4.90679C110.407 4.97614 111.247 5.85786 111.323 5.97109C111.465 6.1848 111.733 7.23494 111.808 7.55621C111.409 7.76284 110.813 8.20158 110.301 8.24262C110.291 8.6757 108.57 14.0311 108.405 14.535L106.484 20.8033H112.912C112.922 20.3546 113.112 19.981 113.235 19.5479L116.691 8.30348C116.979 7.43874 117.166 6.65042 117.444 5.80125C117.873 4.4907 118.649 3.0089 117.692 2.19935C117.393 1.94743 117.037 1.66438 116.93 1.27517L118.302 0.554792C118.503 0.437323 118.405 0.505257 118.536 0.392034L119.022 0.802467C119.061 0.51941 119.087 0.517994 119.139 0.294379C117.28 0.294379 114.912 0.167004 113.117 0.298625C111.544 0.413263 109.977 1.46199 109.296 2.4541C109.59 2.38759 109.761 2.28285 109.999 2.15972C109.999 2.65083 109.899 2.76405 109.899 3.33724C109.534 3.42074 109.577 3.39102 109.396 3.63162L109.794 3.52123C109.799 4.05479 109.803 4.11282 109.899 4.51476C109.435 4.81763 108.801 5.13465 108.292 5.3979C107.914 4.6294 108.153 4.42277 108.292 4.22038C108.279 4.20057 108.255 4.14962 108.252 4.16235C108.249 4.17509 108.223 4.11282 108.218 4.09583C108.189 3.96421 108.192 3.96704 108.192 3.82693C108.102 3.92742 108.018 4.02224 107.918 4.1482C107.671 4.46098 107.284 5.00586 106.987 5.19976C107.051 5.47008 107.123 5.71492 107.188 5.98524C106.851 6.15932 106.612 6.36171 106.224 6.48625C105.822 6.61646 106.169 6.34755 105.867 6.65609C105.663 6.86555 105.82 6.8429 105.481 7.0651C105.459 6.09705 104.978 5.06672 104.978 4.12131C104.675 4.46239 104.827 4.38314 104.677 4.31803C104.677 2.97918 105.05 2.89426 104.325 2.94379C104.317 2.94379 104.29 2.95228 104.275 2.94379C104.275 1.99414 104.694 2.18095 104.093 1.45491C103.797 1.09826 103.279 0.704812 102.769 0.588759L102.983 0.871816C102.511 1.12232 101.585 1.67004 101.161 1.76628C100.719 1.47756 100.214 0.868985 99.9558 0.392034L95.135 0.294379C95.0974 0.740194 94.8381 1.32754 94.7338 1.76628C95.0496 1.60352 95.5305 1.30914 95.939 1.27517L96.3663 2.81925C96.6937 3.27072 97.0109 3.30894 97.3441 3.92459L95.5363 4.80772C94.4846 3.27355 94.431 4.22038 94.431 2.84472L94.1167 3.71512C94.0269 3.9996 93.8994 4.40578 93.8284 4.70865C94.1993 4.80489 94.4441 5.1205 94.6324 5.39507C94.163 5.5182 93.8632 5.98524 93.4272 5.7871C93.417 6.23008 93.3128 6.30509 93.2258 6.67024C93.7575 6.39567 94.3021 6.06167 94.8323 5.7871C95.0032 6.10412 94.9945 6.30651 95.0336 6.76789C94.6947 6.9448 94.8453 6.77921 94.6309 7.0651ZM108.289 4.21896C108.662 4.13405 109.199 3.89062 109.395 3.63021C109.021 3.71512 108.485 3.95855 108.289 4.21896ZM91.7179 13.1494C92.0771 13.0673 92.432 12.9116 92.6218 12.6583C92.2625 12.7404 91.9076 12.8961 91.7179 13.1494ZM93.727 7.55621C94.0863 7.47412 94.4412 7.31844 94.6309 7.0651C94.2717 7.14719 93.9168 7.30287 93.727 7.55621ZM94.6309 11.5799C94.9902 11.4978 95.3451 11.3421 95.5348 11.0888C95.1756 11.1694 94.8207 11.3265 94.6309 11.5799ZM100.456 8.43934C100.815 8.35726 101.17 8.20158 101.359 7.94824C101 8.03033 100.645 8.18601 100.456 8.43934ZM111.404 2.55176C111.763 2.46967 112.118 2.31399 112.308 2.06066C111.948 2.14274 111.593 2.29842 111.404 2.55176ZM97.5425 10.0089C97.9018 9.92681 98.2567 9.77113 98.4464 9.51779C98.0886 9.59988 97.7337 9.75556 97.5425 10.0089ZM114.315 0.980793C114.675 0.898706 115.029 0.743025 115.219 0.489689C114.86 0.571775 114.505 0.727457 114.315 0.980793ZM100.456 8.43934C100.264 8.4818 100.218 8.49454 100.024 8.56389C99.7573 8.66013 99.8964 8.34169 99.853 8.83138C100.159 8.67287 100.254 8.70825 100.456 8.43934ZM102.263 0.489689C102.366 0.590174 102.627 0.34816 102.379 0.437323C102.378 0.438738 102.095 0.325516 102.263 0.489689ZM98.4464 9.51779L98.642 9.62394C98.5985 9.48666 98.7115 9.53053 98.5869 9.4909C98.3943 9.42863 98.5826 9.4442 98.4464 9.51779ZM99.3503 6.96745C99.3503 7.21088 99.5111 6.99292 99.4126 6.96745C99.4126 6.96603 99.3503 6.68864 99.3503 6.96745ZM90.3114 15.9941C90.3114 16.2376 90.4721 16.0196 90.3736 15.9941C90.3722 15.9941 90.3114 15.7167 90.3114 15.9941ZM118.635 1.66862C118.635 1.91205 118.796 1.6941 118.697 1.66862C118.696 1.66721 118.635 1.38981 118.635 1.66862ZM104.474 2.25738C104.474 2.50081 104.635 2.28285 104.536 2.25738C104.535 2.25596 104.474 1.97857 104.474 2.25738ZM97.8438 11.8728C97.8438 12.1163 98.0046 11.8983 97.9061 11.8728C97.9047 11.8728 97.8438 11.5954 97.8438 11.8728ZM96.9399 14.8166C96.9399 15.06 97.1007 14.8421 97.0022 14.8166C97.0022 14.8166 96.9399 14.5392 96.9399 14.8166ZM98.7477 8.92903C98.7477 9.17246 98.9085 8.95451 98.81 8.92903C98.81 8.92903 98.7477 8.65164 98.7477 8.92903ZM99.9529 9.22341C99.9529 9.46684 100.114 9.24889 100.015 9.22341C100.015 9.22341 99.9529 8.94602 99.9529 9.22341ZM104.774 3.72928C104.774 3.97271 104.934 3.75475 104.836 3.72928C104.836 3.72786 104.774 3.45046 104.774 3.72928ZM97.2412 13.8358C97.2412 14.0793 97.402 13.8613 97.3035 13.8358C97.3035 13.8358 97.2412 13.5584 97.2412 13.8358ZM90.01 16.9763C90.01 17.2198 90.1708 17.0018 90.0723 16.9763C90.0709 16.9763 90.01 16.6975 90.01 16.9763ZM98.4464 9.91124C98.4464 10.1547 98.6072 9.93672 98.5087 9.91124C98.5087 9.90983 98.4464 9.63243 98.4464 9.91124ZM118.334 2.64941C118.334 2.89284 118.494 2.67489 118.396 2.64941C118.394 2.64941 118.334 2.3706 118.334 2.64941ZM90.4127 15.7012C90.4127 15.9446 90.5735 15.7266 90.475 15.7012C90.4736 15.6998 90.4127 15.4224 90.4127 15.7012ZM93.727 4.90679C93.727 5.15022 93.8878 4.93227 93.7893 4.90679C93.7879 4.90538 93.727 4.62798 93.727 4.90679ZM118.735 1.37424C118.735 1.61767 118.896 1.39972 118.797 1.37424C118.796 1.37283 118.735 1.09543 118.735 1.37424ZM96.84 15.111C96.84 15.3544 97.0008 15.1365 96.9023 15.111C96.9008 15.111 96.84 14.8336 96.84 15.111ZM90.1115 16.682C90.1115 16.9254 90.2722 16.7074 90.1737 16.682C90.1723 16.682 90.1115 16.4032 90.1115 16.682ZM104.574 2.64941C104.574 2.89284 104.735 2.67489 104.636 2.64941C104.635 2.64941 104.574 2.3706 104.574 2.64941ZM91.9192 10.7944C91.9192 11.0378 92.08 10.8199 91.9815 10.7944C91.9801 10.7944 91.9192 10.5156 91.9192 10.7944ZM118.434 2.35503C118.434 2.59846 118.594 2.38051 118.496 2.35503C118.494 2.35503 118.434 2.07622 118.434 2.35503ZM110.398 8.04731C110.398 8.29074 110.559 8.07279 110.461 8.04731C110.459 8.0459 110.398 7.7685 110.398 8.04731ZM97.1413 14.1302C97.1413 14.3736 97.3021 14.1557 97.2036 14.1302C97.2021 14.1302 97.1413 13.8514 97.1413 14.1302ZM98.3465 10.2056C98.3465 10.449 98.5072 10.2311 98.4087 10.2056C98.4073 10.2056 98.3465 9.92681 98.3465 10.2056ZM110.7 7.0651C110.7 7.30853 110.86 7.09058 110.762 7.0651C110.762 7.0651 110.7 6.78629 110.7 7.0651ZM92.0192 10.5C92.0192 10.7434 92.18 10.5255 92.0815 10.5C92.08 10.5 92.0192 10.2212 92.0192 10.5ZM93.5257 5.59321C93.5257 5.83664 93.6865 5.61868 93.588 5.59321C93.5865 5.59321 93.5257 5.3144 93.5257 5.59321ZM94.4296 2.64941C94.4296 2.89284 94.5904 2.67489 94.4919 2.64941C94.4904 2.64941 94.4296 2.3706 94.4296 2.64941ZM92.2205 10.1066H92.1206L92.2046 10.2212L92.2205 10.1066ZM109.997 7.85059H110.097L110.013 7.73595L109.997 7.85059ZM109.093 2.74707H109.193L109.109 2.63243L109.093 2.74707ZM108.692 3.23817H108.792L108.708 3.12353L108.692 3.23817ZM106.683 5.69086H106.583L106.667 5.8055L106.683 5.69086ZM110.398 7.35948H110.298L110.382 7.47412L110.398 7.35948ZM106.282 6.18196H106.382L106.298 6.06733L106.282 6.18196ZM106.683 5.69086H106.783L106.699 5.57622L106.683 5.69086ZM106.282 6.18196H106.182L106.266 6.2966L106.282 6.18196ZM108.993 2.84614H108.893L108.977 2.96078L108.993 2.84614ZM108.289 3.72928H108.389L108.305 3.61464L108.289 3.72928ZM108.692 3.23817H108.592L108.676 3.35281L108.692 3.23817ZM99.2504 7.35948H99.3503L99.2663 7.24484L99.2504 7.35948ZM93.6256 5.29883C93.6358 5.30873 93.6561 5.25637 93.6561 5.26911C93.6546 5.27194 93.6155 5.28892 93.6256 5.29883ZM98.6478 9.32248C98.6579 9.33239 98.6782 9.28002 98.6782 9.29276C98.6753 9.29418 98.6376 9.31258 98.6478 9.32248ZM96.74 15.5044C96.7502 15.5144 96.769 15.4606 96.769 15.4747C96.7675 15.4776 96.7299 15.4945 96.74 15.5044ZM94.6309 2.06066C94.6411 2.07056 94.6613 2.01678 94.6613 2.03093C94.6584 2.03376 94.6208 2.05075 94.6309 2.06066ZM98.2465 10.5977L98.2769 10.5679C98.274 10.5708 98.2364 10.5877 98.2465 10.5977ZM91.8178 11.1864L91.8483 11.1567C91.8468 11.1595 91.8077 11.1765 91.8178 11.1864ZM97.3426 13.5414L97.373 13.5117C97.3701 13.5146 97.3325 13.5315 97.3426 13.5414ZM118.234 3.04145L118.263 3.01173C118.261 3.01456 118.222 3.03154 118.234 3.04145ZM94.5295 2.35503L94.5599 2.32531C94.5585 2.32814 94.5194 2.34513 94.5295 2.35503ZM97.0413 14.5237L97.0703 14.4939C97.0688 14.4953 97.0312 14.5123 97.0413 14.5237ZM110.5 7.75152L110.53 7.7218C110.527 7.72463 110.49 7.74161 110.5 7.75152ZM118.533 2.06066L118.564 2.03093C118.562 2.03376 118.525 2.05075 118.533 2.06066ZM118.836 1.07986L118.867 1.05014C118.864 1.05156 118.826 1.06996 118.836 1.07986ZM99.4517 6.77072L99.4821 6.741C99.4792 6.74383 99.4416 6.76082 99.4517 6.77072ZM90.2114 16.3876L90.2418 16.3579C90.2389 16.3607 90.2013 16.3777 90.2114 16.3876ZM89.3075 19.3314L89.3379 19.3017C89.335 19.3045 89.2974 19.3215 89.3075 19.3314ZM110.6 7.26183L110.655 7.4727L110.6 7.26183ZM110.5 7.26183L110.398 7.35948L110.5 7.26183ZM108.289 3.72928L108.189 3.82693L108.289 3.72928ZM102.766 0.588759L102.57 0.475536L102.766 0.588759ZM110.6 7.26183H110.5H110.6ZM109.093 2.74707L108.993 2.84472L109.093 2.74707ZM108.993 9.0281L108.893 9.12576L108.993 9.0281ZM108.892 9.12576L108.792 9.22341L108.892 9.12576ZM111.404 2.55176L111.202 2.64941L111.404 2.55176ZM13.1572 3.23817L13.0572 3.33583L13.1572 3.23817Z" fill="white"/>
</svg>
