<svg width="15" height="15" viewBox="0 0 15 15" fill="none" xmlns="http://www.w3.org/2000/svg">
<path d="M4.05176 4.01953C4.38281 4.01953 4.64941 3.75293 4.64941 3.42188V0.919922C4.64941 0.588867 4.38281 0.322266 4.05176 0.322266C3.7207 0.322266 3.4541 0.588867 3.4541 0.919922V3.42188C3.4541 3.75293 3.72363 4.01953 4.05176 4.01953Z" fill="#B3B3B3"/>
<path d="M10.9482 4.01953C11.2793 4.01953 11.5459 3.75293 11.5459 3.42188V0.919922C11.5459 0.588867 11.2793 0.322266 10.9482 0.322266C10.6172 0.322266 10.3506 0.588867 10.3506 0.919922V3.42188C10.3506 3.75293 10.6172 4.01953 10.9482 4.01953Z" fill="#B3B3B3"/>
<path d="M10.4473 11.7744C10.1191 12.0762 9.67383 12.2285 9.11133 12.2285C8.6543 12.2285 8.27051 12.1611 7.95996 12.0234V11.1328C8.28516 11.332 8.62793 11.4316 8.99414 11.4316C9.26953 11.4316 9.48633 11.3672 9.6416 11.2354C9.79688 11.1035 9.87598 10.9248 9.87598 10.7021C9.87598 10.2334 9.54492 9.99902 8.87988 9.99902C8.66309 9.99902 8.40234 10.0195 8.09473 10.0576V7.40918H10.7227V8.26172H8.98828V9.21094C9.12598 9.19629 9.25781 9.19043 9.38086 9.19043C9.86719 9.19043 10.251 9.31934 10.5264 9.57422C10.8018 9.8291 10.9395 10.1748 10.9395 10.6055C10.9424 11.0801 10.7783 11.4727 10.4473 11.7744ZM7.08398 12.1465H4.08398V11.3203H5.06836V8.36719L4.06055 8.58691V7.74023L6.11133 7.32715V11.3232H7.08691V12.1465H7.08398ZM14.0801 1.60547H12.7412V3.42188C12.7412 4.41211 11.9355 5.21484 10.9453 5.21484C9.95508 5.21484 9.14941 4.40918 9.14941 3.42188V1.60547H5.84766V3.42188C5.84766 4.41211 5.04199 5.21484 4.05469 5.21484C3.06445 5.21484 2.26172 4.40918 2.26172 3.42188V1.60547H0.919922C0.588867 1.60547 0.322266 1.875 0.322266 2.20312V14.0801C0.322266 14.4111 0.588867 14.6777 0.919922 14.6777H14.0801C14.4111 14.6777 14.6777 14.4111 14.6777 14.0801V2.20312C14.6777 1.875 14.4111 1.60547 14.0801 1.60547Z" fill="#B3B3B3"/>
</svg>
