<svg width="23" height="13" viewBox="0 0 23 13" fill="none" xmlns="http://www.w3.org/2000/svg">
<path d="M22.5998 3.37975C21.9629 3.04631 20.2251 3.60756 19.7724 3.89884C19.6242 3.63512 19.456 3.34628 19.2737 3.05054C18.3414 1.53845 17.5508 0.662195 16.8566 0.371814C16.8287 0.360145 16.7999 0.35081 16.7705 0.343859C16.711 0.329807 15.2682 0 11.5 0C7.73181 0 6.28899 0.329856 6.2294 0.343859C6.19996 0.35081 6.17121 0.360145 6.14335 0.371814C5.44918 0.662244 4.65853 1.53845 3.72626 3.05054C3.54393 3.34628 3.3757 3.63512 3.22753 3.89884C2.77483 3.60756 1.03701 3.04631 0.400143 3.37975C-0.257036 3.7238 0.00628241 4.80672 0.400143 5.10043C0.646033 5.28375 1.32069 5.33957 2.03115 5.29235C1.87042 5.50641 1.74375 5.74733 1.658 6.00683C2.7784 6.21687 5.41214 6.20778 5.01853 7.06169C4.44263 8.31075 2.67006 8.13786 1.57741 7.58252L1.78144 11.1042C1.78144 11.9272 2.4486 12.5943 3.27157 12.5943H4.16769C4.99067 12.5943 5.65778 11.9272 5.65778 11.1042L5.62853 10.7885H17.3715L17.3422 11.1042C17.3422 11.9272 18.0093 12.5943 18.8323 12.5943H19.7284C20.5514 12.5943 21.2186 11.9272 21.2186 11.1042L21.4225 7.58252C20.3299 8.13786 18.5574 8.3108 17.9815 7.06169C17.5878 6.20778 20.2215 6.21687 21.342 6.00683C21.2563 5.74728 21.1296 5.50636 20.9689 5.29235C21.6793 5.33962 22.354 5.2838 22.5999 5.10043C22.9936 4.80672 23.257 3.7238 22.5998 3.37975ZM14.3673 9.13348H8.63254L8.03669 6.96084H14.9631L14.3673 9.13348ZM4.26387 4.29275C4.97721 3.04473 5.88877 1.71194 6.52579 1.40478C6.79289 1.3523 8.2501 1.09935 11.5 1.09935C14.7535 1.09935 16.2104 1.35289 16.474 1.40473C17.1102 1.71145 18.0219 3.04443 18.7357 4.29275H4.26387Z" fill="#73787C"/>
</svg>
