<svg width="29" height="26" viewBox="0 0 29 26" fill="#3364A3" xmlns="http://www.w3.org/2000/svg">
<path d="M25.1597 15.0066L27.3222 5.33787C27.4784 4.63977 26.9562 3.975 26.2516 3.975H8.28322L7.8639 1.89204C7.75942 1.37285 7.30982 1 6.78826 1H2.09792C1.49155 1 1 1.49947 1 2.11562V2.85937C1 3.47553 1.49155 3.975 2.09792 3.975H5.29482L8.50843 19.9394C7.73961 20.3886 7.22153 21.231 7.22153 22.1969C7.22153 23.6345 8.36849 24.8 9.78334 24.8C11.1982 24.8 12.3451 23.6345 12.3451 22.1969C12.3451 21.4683 12.0502 20.81 11.5755 20.3375H21.1661C20.6915 20.81 20.3965 21.4683 20.3965 22.1969C20.3965 23.6345 21.5435 24.8 22.9583 24.8C24.3732 24.8 25.5201 23.6345 25.5201 22.1969C25.5201 21.1662 24.9306 20.2756 24.0755 19.8538L24.3279 18.7254C24.484 18.0273 23.9618 17.3625 23.2573 17.3625H10.9781L10.6787 15.875H24.0891C24.6017 15.875 25.0461 15.5146 25.1597 15.0066Z" stroke="none" strokeWidth="0"/>
</svg>
