<svg width="15" height="11" viewBox="0 0 15 11" fill="none" xmlns="http://www.w3.org/2000/svg">
<path d="M14.5139 0.078125H0.486134C0.217665 0.078125 0 0.295822 0 0.564325V10.4358C0 10.7043 0.217665 10.922 0.486134 10.922H14.5138C14.7823 10.922 15 10.7044 15 10.4358V0.564325C15 0.295822 14.7824 0.078125 14.5139 0.078125ZM13.2736 8.41963C13.4794 8.5983 13.5015 8.91001 13.3228 9.11589C13.1441 9.32168 12.8325 9.34386 12.6265 9.16512C12.499 9.05443 9.28067 6.26121 9.15665 6.15358L7.82352 7.31064C7.73073 7.39119 7.61536 7.43147 7.5 7.43147C7.38464 7.43147 7.26927 7.39119 7.17648 7.31064L5.84335 6.15358C5.7193 6.26125 2.50102 9.05443 2.37348 9.16512C2.1676 9.34379 1.85586 9.32178 1.67719 9.11589C1.49851 8.91001 1.52056 8.5983 1.72644 8.41963L5.09036 5.50003L1.72644 2.58049C1.52059 2.40182 1.49855 2.09012 1.67719 1.88423C1.85589 1.67838 2.1676 1.65627 2.37348 1.83501C2.54031 1.97979 7.19711 6.0215 7.5 6.28438C7.76232 6.05671 12.4457 1.99193 12.6265 1.83501C12.8324 1.6563 13.1441 1.67831 13.3228 1.88423C13.5015 2.09012 13.4794 2.40185 13.2736 2.58049L9.90964 5.50003L13.2736 8.41963Z" fill="#B3B3B3"/>
</svg>
