<svg width="18" height="18" viewBox="0 0 18 18" fill="none" xmlns="http://www.w3.org/2000/svg">
<g clip-path="url(#clip0_783_119)">
<path d="M8.99994 6.75049C7.75847 6.75049 6.74988 7.75905 6.74988 9.00048C6.74988 10.2419 7.75847 11.2494 8.99994 11.2494C10.2414 11.2494 11.2499 10.242 11.2499 9.00048C11.2499 7.75901 10.2414 6.75049 8.99994 6.75049Z" fill="#B3B3B3"/>
<path d="M17.7673 8.31477C15.7956 5.75055 13.3704 3.37751 9.00545 3.37533H9.00489H9.00432C9.00432 3.37424 9.00102 3.37424 8.99993 3.37533C8.99993 3.37533 8.99719 3.37533 8.9961 3.37533C8.99554 3.37533 8.99554 3.37533 8.99554 3.37533H8.99497C8.99441 3.37533 8.99441 3.37533 8.99441 3.37533C4.62949 3.37754 2.20428 5.75059 0.232716 8.31477C-0.0775721 8.71907 -0.0775721 9.28157 0.232716 9.68586C2.20428 12.2501 4.62952 14.6231 8.99452 14.6253C8.99452 14.6253 8.99452 14.6253 8.99508 14.6253H8.99564C8.99564 14.6253 8.99564 14.6253 8.9962 14.6253H8.99677C8.99733 14.6253 9.00007 14.6253 9.00007 14.6253C9.00063 14.6253 9.00116 14.6253 9.00232 14.6253H9.00334H9.0039H9.00447H9.00503H9.00559C9.00942 14.6253 9.01329 14.6253 9.01768 14.6253C9.02264 14.6242 9.02756 14.6242 9.03252 14.6253C13.3799 14.6135 15.7996 12.2446 17.7674 9.68586C18.0775 9.28157 18.0775 8.71907 17.7673 8.31477ZM9.00327 12.3753H9.00264H9.00222H9.00158H9.00049H8.99997C8.99888 12.3753 8.99768 12.3753 8.99768 12.3753H8.99719C8.99719 12.3753 8.99719 12.3753 8.99663 12.3753C7.1376 12.3731 5.62487 10.8592 5.62487 9.00032C5.62487 7.14144 7.1376 5.6275 8.99663 5.62532C8.99764 5.62532 8.99937 5.62532 9.00158 5.62532H9.00323C10.8622 5.62754 12.3749 7.14144 12.3749 9.00032C12.3749 10.8592 10.8622 12.3731 9.00327 12.3753Z" fill="#B3B3B3"/>
</g>
<defs>
<clipPath id="clip0_783_119">
<rect width="18" height="18" fill="white"/>
</clipPath>
</defs>
</svg>
