<svg width="15" height="12" viewBox="0 0 15 12" fill="none" xmlns="http://www.w3.org/2000/svg">
<path fill-rule="evenodd" clip-rule="evenodd" d="M0 2.2667C0 1.4935 0.671573 0.866699 1.5 0.866699H13.5C14.3284 0.866699 15 1.4935 15 2.2667V9.73337C15 10.5065 14.3284 11.1334 13.5 11.1334H1.5C0.671574 11.1334 0 10.5065 0 9.73337V2.2667ZM3 4.60003C3 3.5691 3.89543 2.73337 5 2.73337C6.10457 2.73337 7 3.5691 7 4.60003C7 5.63096 6.10457 6.4667 5 6.4667C3.89543 6.4667 3 5.63096 3 4.60003ZM12 4.60003H9V3.6667H12V4.60003ZM12 7.40003H9V6.4667H12V7.40003ZM5 7.40003C3.89132 7.40003 2.87779 7.98467 2.38197 8.91017L2.05279 9.52467C1.97529 9.66934 1.98357 9.84117 2.07468 9.97874C2.16578 10.1163 2.32671 10.2 2.5 10.2H7.5C7.67329 10.2 7.83422 10.1163 7.92533 9.97874C8.01643 9.84117 8.02471 9.66934 7.94721 9.52467L7.61803 8.91017C7.12222 7.98467 6.10869 7.40003 5 7.40003Z" fill="#B3B3B3"/>
</svg>
