<svg width="12" height="20" viewBox="0 0 12 20" fill="none" xmlns="http://www.w3.org/2000/svg">
<path d="M6.00007 0C2.76847 0 0.139404 2.62906 0.139404 5.86066C0.139404 6.74196 0.3303 7.58895 0.706638 8.37867C0.714214 8.39556 0.722168 8.41215 0.730652 8.42874L5.15868 17.0023C5.32125 17.317 5.64585 17.5147 5.99999 17.5147C6.35421 17.5147 6.67881 17.3171 6.8413 17.0023L11.2681 8.43109C11.2758 8.41632 11.2829 8.4014 11.2897 8.38632C11.6685 7.59433 11.8606 6.74477 11.8606 5.86066C11.8607 2.62906 9.23166 0 6.00007 0ZM6.00007 8.92825C4.30859 8.92825 2.93247 7.55214 2.93247 5.86066C2.93247 4.16926 4.30859 2.79314 6.00007 2.79314C7.69154 2.79314 9.06766 4.16926 9.06766 5.86066C9.06766 7.55214 7.69154 8.92825 6.00007 8.92825Z" fill="#B3B3B3"/>
<path d="M8.25745 18.8638H3.74246C3.42862 18.8638 3.17432 19.1181 3.17432 19.4319C3.17432 19.7458 3.42862 20.0001 3.74246 20.0001H8.25745C8.5713 20.0001 8.8256 19.7458 8.8256 19.4319C8.8256 19.1181 8.57122 18.8638 8.25745 18.8638Z" fill="#B3B3B3"/>
</svg>
