<svg width="14" height="20" viewBox="0 0 14 20" fill="none" xmlns="http://www.w3.org/2000/svg">
<path d="M0.939364 20H13.0606C13.5626 20 13.9697 19.593 13.9697 19.0909V8.78788C13.9697 8.28582 13.5626 7.87879 13.0606 7.87879H12.1515V5.15152C12.1515 2.31097 9.84052 0 6.99997 0C4.15942 0 1.84846 2.31097 1.84846 5.15152V7.87879H0.939364C0.437304 7.87879 0.0302734 8.28582 0.0302734 8.78788V19.0909C0.0302734 19.593 0.437304 20 0.939364 20ZM3.66664 5.15152C3.66664 3.31352 5.16197 1.81818 6.99997 1.81818C8.83797 1.81818 10.3333 3.31352 10.3333 5.15152V7.87879H3.66664V5.15152Z" fill="#B3B3B3"/>
</svg>
