<svg width="620" height="502" viewBox="0 0 620 502" fill="none" xmlns="http://www.w3.org/2000/svg">
<path d="M487.635 390.562C487.499 390.335 487.285 390.175 487.031 390.109C486.776 390.043 486.509 390.08 486.283 390.216L483.009 392.153L481.074 388.875C480.938 388.649 480.725 388.489 480.47 388.423C480.215 388.357 479.948 388.394 479.723 388.53C479.497 388.666 479.336 388.88 479.271 389.135C479.205 389.39 479.242 389.657 479.378 389.883L481.312 393.161L478.038 395.098C477.812 395.233 477.652 395.447 477.586 395.702C477.521 395.957 477.558 396.224 477.693 396.451C477.829 396.677 478.042 396.837 478.297 396.903C478.552 396.969 478.819 396.932 479.045 396.796L482.319 394.859L484.254 398.137C484.471 398.507 484.895 398.68 485.293 398.602C485.4 398.581 485.502 398.54 485.601 398.482C486.069 398.207 486.226 397.598 485.95 397.129L484.015 393.852L487.29 391.915C487.754 391.635 487.91 391.03 487.635 390.562Z" fill="#DEDEDE"/>
<path d="M495.93 412.247C493.56 412.247 491.633 410.318 491.633 407.945C491.633 405.572 493.56 403.644 495.93 403.644C498.3 403.644 500.227 405.572 500.227 407.945C500.227 410.318 498.3 412.247 495.93 412.247ZM495.93 405.947C494.829 405.947 493.929 406.843 493.929 407.949C493.929 409.051 494.825 409.952 495.93 409.952C497.031 409.952 497.93 409.056 497.93 407.949C497.93 406.843 497.035 405.947 495.93 405.947Z" fill="#DEDEDE"/>
<path d="M62.0313 475.365C59.661 475.365 57.7344 473.437 57.7344 471.064C57.7344 468.691 59.661 466.762 62.0313 466.762C64.4016 466.762 66.3283 468.691 66.3283 471.064C66.3283 473.437 64.3975 475.365 62.0313 475.365ZM62.0313 469.065C60.9304 469.065 60.0307 469.962 60.0307 471.068C60.0307 472.17 60.9263 473.071 62.0313 473.071C63.1364 473.071 64.0319 472.174 64.0319 471.068C64.0319 469.962 63.1323 469.065 62.0313 469.065Z" fill="#DEDEDE"/>
<path d="M537.754 12.8985C535.384 12.8985 533.457 10.9698 533.457 8.59685C533.457 6.22394 535.384 4.29517 537.754 4.29517C540.124 4.29517 542.051 6.22394 542.051 8.59685C542.051 10.9698 540.124 12.8985 537.754 12.8985ZM537.754 6.59818C536.653 6.59818 535.753 7.4947 535.753 8.60097C535.753 9.70312 536.649 10.6038 537.754 10.6038C538.859 10.6038 539.755 9.70723 539.755 8.60097C539.755 7.4947 538.855 6.59818 537.754 6.59818Z" fill="#DEDEDE"/>
<path d="M611.289 121.818C611.051 121.933 610.874 122.135 610.788 122.386C610.702 122.636 610.718 122.904 610.833 123.138L612.497 126.56L609.079 128.225C608.841 128.34 608.664 128.542 608.578 128.793C608.492 129.044 608.508 129.311 608.623 129.545C608.738 129.784 608.94 129.961 609.19 130.047C609.441 130.134 609.708 130.117 609.942 130.002L613.36 128.336L615.024 131.758C615.139 131.997 615.34 132.173 615.59 132.26C615.841 132.346 616.108 132.33 616.342 132.214C616.58 132.099 616.757 131.898 616.843 131.647C616.93 131.396 616.913 131.129 616.798 130.894L615.134 127.473L618.552 125.807C618.939 125.618 619.148 125.211 619.099 124.808C619.086 124.701 619.058 124.594 619.004 124.491C618.766 124.002 618.174 123.796 617.686 124.035L614.268 125.7L612.604 122.279C612.37 121.785 611.778 121.58 611.289 121.818Z" fill="#DEDEDE"/>
<path d="M549.223 203.665C546.853 203.665 544.926 201.736 544.926 199.363C544.926 196.99 546.853 195.062 549.223 195.062C551.593 195.062 553.52 196.99 553.52 199.363C553.52 201.736 551.593 203.665 549.223 203.665ZM549.223 197.36C548.122 197.36 547.222 198.257 547.222 199.363C547.222 200.465 548.118 201.366 549.223 201.366C550.324 201.366 551.223 200.469 551.223 199.363C551.223 198.261 550.328 197.36 549.223 197.36Z" fill="#DEDEDE"/>
<path d="M1.4132 263.621C1.22013 263.802 1.10926 264.045 1.10104 264.308C1.09283 264.571 1.18727 264.822 1.36802 265.015L3.96842 267.791L1.19552 270.395C1.00244 270.576 0.891522 270.818 0.883306 271.081C0.87509 271.345 0.969585 271.596 1.15034 271.789C1.33109 271.982 1.57343 272.093 1.83634 272.101C2.09925 272.11 2.34983 272.015 2.5429 271.834L5.3158 269.231L7.9162 272.007C8.09695 272.2 8.33929 272.311 8.6022 272.319C8.86512 272.328 9.11574 272.233 9.30882 272.052C9.50189 271.871 9.61281 271.628 9.62103 271.365C9.62925 271.102 9.53475 270.851 9.354 270.658L6.7536 267.882L9.5265 265.279C9.83871 264.987 9.91678 264.534 9.75246 264.16C9.70728 264.061 9.64978 263.967 9.56762 263.885C9.1938 263.486 8.56937 263.469 8.17501 263.839L5.40211 266.443L2.80171 263.667C2.4361 263.268 1.81168 263.247 1.4132 263.621Z" fill="#DEDEDE"/>
<path d="M43.7462 310.907C41.3759 310.907 39.4492 308.978 39.4492 306.605C39.4492 304.232 41.3759 302.303 43.7462 302.303C46.1165 302.303 48.0431 304.232 48.0431 306.605C48.0431 308.978 46.1124 310.907 43.7462 310.907ZM43.7462 304.602C42.6452 304.602 41.7456 305.499 41.7456 306.605C41.7456 307.707 42.6411 308.608 43.7462 308.608C44.8512 308.608 45.7468 307.711 45.7468 306.605C45.7427 305.503 44.8471 304.602 43.7462 304.602Z" fill="#DEDEDE"/>
<path d="M117.706 446.084C117.246 446.084 116.86 445.723 116.835 445.258C116.806 444.777 117.176 444.361 117.661 444.337C120.545 444.172 123.461 443.884 126.333 443.481C126.809 443.415 127.253 443.749 127.319 444.226C127.384 444.703 127.052 445.147 126.575 445.217C123.654 445.628 120.688 445.924 117.755 446.088C117.739 446.084 117.722 446.084 117.706 446.084ZM105.411 446.047C105.394 446.047 105.374 446.047 105.353 446.047C102.416 445.862 99.45 445.55 96.5415 445.118C96.065 445.048 95.7363 444.6 95.8062 444.123C95.876 443.646 96.3238 443.317 96.8003 443.387C99.6595 443.814 102.576 444.119 105.464 444.3C105.945 444.328 106.31 444.744 106.282 445.229C106.253 445.694 105.867 446.047 105.411 446.047ZM138.509 442.794C138.123 442.794 137.765 442.535 137.663 442.141C137.539 441.672 137.819 441.195 138.287 441.071C141.089 440.335 143.89 439.471 146.614 438.505C147.07 438.345 147.567 438.583 147.731 439.036C147.896 439.488 147.653 439.99 147.201 440.154C144.433 441.137 141.586 442.017 138.735 442.766C138.657 442.786 138.583 442.794 138.509 442.794ZM84.6324 442.593C84.5544 442.593 84.4804 442.585 84.4024 442.56C81.5637 441.783 78.7251 440.878 75.9605 439.862C75.5086 439.698 75.2744 439.192 75.4387 438.739C75.6031 438.287 76.1083 438.053 76.5602 438.217C79.2797 439.212 82.069 440.105 84.8625 440.87C85.3267 440.997 85.6019 441.478 85.4745 441.943C85.3677 442.338 85.0145 442.593 84.6324 442.593ZM158.231 435.412C157.911 435.412 157.599 435.236 157.447 434.927C157.233 434.495 157.41 433.969 157.841 433.755C160.433 432.468 163.001 431.057 165.478 429.556C165.893 429.305 166.427 429.437 166.677 429.852C166.928 430.268 166.796 430.802 166.382 431.053C163.867 432.579 161.255 434.014 158.618 435.322C158.494 435.38 158.363 435.412 158.231 435.412ZM64.9798 435.005C64.8483 435.005 64.7127 434.977 64.5854 434.911C61.9645 433.578 59.3641 432.118 56.8583 430.572C56.4475 430.317 56.3201 429.778 56.5748 429.367C56.8295 428.956 57.3676 428.828 57.7784 429.083C60.2432 430.605 62.7984 432.044 65.3782 433.352C65.8096 433.57 65.9821 434.096 65.7644 434.528C65.6083 434.833 65.3002 435.005 64.9798 435.005ZM176.044 424.185C175.785 424.185 175.526 424.07 175.353 423.848C175.058 423.466 175.123 422.919 175.506 422.619C177.785 420.834 180.016 418.93 182.136 416.96C182.489 416.631 183.044 416.651 183.372 417.005C183.701 417.359 183.68 417.914 183.327 418.243C181.17 420.246 178.903 422.183 176.586 423.996C176.422 424.128 176.233 424.185 176.044 424.185ZM47.2496 423.63C47.0607 423.63 46.8676 423.568 46.7074 423.441C44.4028 421.611 42.1475 419.657 40.0031 417.638C39.6498 417.305 39.6334 416.754 39.9662 416.4C40.2989 416.047 40.8494 416.03 41.2027 416.363C43.3101 418.346 45.5284 420.266 47.796 422.067C48.1739 422.368 48.2355 422.919 47.9356 423.297C47.7631 423.515 47.5084 423.63 47.2496 423.63ZM191.231 409.59C191.03 409.59 190.828 409.52 190.664 409.38C190.294 409.068 190.253 408.517 190.565 408.147C192.439 405.938 194.242 403.627 195.926 401.271C196.206 400.876 196.752 400.785 197.146 401.069C197.541 401.349 197.631 401.896 197.348 402.29C195.635 404.688 193.803 407.04 191.896 409.282C191.724 409.487 191.481 409.59 191.231 409.59ZM32.1651 408.932C31.9145 408.932 31.668 408.825 31.4955 408.62C29.6017 406.362 27.7859 403.997 26.0934 401.587C25.8141 401.192 25.9086 400.645 26.3071 400.366C26.7014 400.086 27.2478 400.181 27.523 400.58C29.1868 402.948 30.9738 405.272 32.8347 407.493C33.1469 407.863 33.0976 408.414 32.7279 408.726C32.5594 408.862 32.3623 408.932 32.1651 408.932ZM203.193 392.239C203.05 392.239 202.906 392.202 202.774 392.133C202.351 391.898 202.199 391.368 202.429 390.944C203.826 388.407 205.128 385.779 206.307 383.13C206.504 382.69 207.022 382.489 207.462 382.686C207.901 382.883 208.102 383.402 207.905 383.842C206.71 386.531 205.383 389.204 203.962 391.787C203.797 392.075 203.502 392.239 203.193 392.239ZM20.3422 391.487C20.03 391.487 19.7301 391.318 19.5699 391.026C18.1732 388.435 16.8751 385.75 15.7043 383.044C15.5112 382.6 15.7166 382.086 16.1603 381.892C16.6039 381.699 17.1175 381.905 17.3105 382.349C18.4608 385.006 19.7384 387.646 21.1104 390.196C21.3405 390.623 21.1803 391.154 20.7572 391.38C20.6257 391.454 20.4819 391.487 20.3422 391.487ZM211.438 372.837C211.352 372.837 211.266 372.824 211.179 372.796C210.719 372.652 210.46 372.162 210.604 371.702C211.463 368.934 212.21 366.096 212.831 363.267C212.933 362.794 213.402 362.498 213.87 362.601C214.343 362.703 214.638 363.172 214.536 363.641C213.907 366.516 213.143 369.403 212.272 372.216C212.157 372.594 211.812 372.837 211.438 372.837ZM12.2947 372.006C11.9167 372.006 11.5717 371.759 11.4566 371.381C10.6145 368.568 9.88325 365.677 9.27526 362.786C9.17667 362.313 9.47656 361.848 9.95309 361.749C10.4255 361.651 10.8897 361.955 10.9883 362.428C11.584 365.27 12.307 368.116 13.1327 370.879C13.2724 371.344 13.0095 371.829 12.5453 371.969C12.4631 371.994 12.3768 372.006 12.2947 372.006ZM215.604 352.163C215.575 352.163 215.546 352.163 215.517 352.159C215.037 352.114 214.684 351.686 214.733 351.205C215.012 348.322 215.172 345.394 215.205 342.495C215.209 342.013 215.608 341.619 216.088 341.631C216.573 341.635 216.959 342.034 216.951 342.515C216.918 345.464 216.754 348.441 216.471 351.374C216.425 351.826 216.047 352.163 215.604 352.163ZM8.30989 351.304C7.86212 351.304 7.48008 350.962 7.439 350.506C7.17198 347.569 7.02818 344.588 7.01175 341.643C7.00764 341.162 7.3979 340.767 7.88264 340.763H7.88676C8.36739 340.763 8.75765 341.15 8.76176 341.635C8.77819 344.53 8.91787 347.458 9.18079 350.35C9.22597 350.831 8.86861 351.254 8.38797 351.3C8.36332 351.304 8.33454 351.304 8.30989 351.304ZM215.493 331.082C215.053 331.082 214.671 330.749 214.626 330.301C214.318 327.426 213.887 324.523 213.34 321.673L213.32 321.562C213.229 321.089 213.537 320.628 214.01 320.538C214.486 320.448 214.942 320.756 215.033 321.229L215.053 321.344C215.612 324.248 216.051 327.196 216.364 330.12C216.413 330.601 216.068 331.033 215.587 331.082C215.554 331.078 215.526 331.082 215.493 331.082ZM8.55225 330.215C8.51939 330.215 8.48653 330.215 8.45366 330.211C7.97303 330.157 7.62796 329.721 7.68547 329.244C8.01822 326.316 8.48241 323.367 9.06164 320.48C9.15612 320.007 9.61622 319.699 10.0928 319.794C10.5652 319.888 10.8733 320.349 10.7788 320.826C10.2078 323.668 9.75179 326.567 9.42726 329.442C9.36564 329.886 8.9877 330.215 8.55225 330.215ZM211.142 310.339C210.773 310.339 210.428 310.101 210.309 309.73C209.429 306.967 208.427 304.211 207.322 301.538C207.137 301.09 207.351 300.58 207.794 300.395C208.242 300.21 208.752 300.424 208.936 300.868C210.062 303.586 211.085 306.387 211.976 309.2C212.124 309.66 211.87 310.154 211.409 310.298C211.319 310.327 211.229 310.339 211.142 310.339ZM13.0505 309.615C12.9602 309.615 12.8698 309.603 12.7794 309.57C12.3193 309.418 12.0728 308.924 12.2207 308.464C13.1368 305.667 14.1884 302.875 15.3387 300.161C15.5276 299.716 16.0412 299.507 16.4848 299.696C16.9285 299.885 17.138 300.399 16.949 300.843C15.8152 303.512 14.7841 306.259 13.8845 309.007C13.7612 309.385 13.4203 309.615 13.0505 309.615ZM202.758 291.002C202.454 291.002 202.154 290.842 201.994 290.554C200.577 288.029 199.036 285.532 197.409 283.139C197.138 282.74 197.241 282.193 197.639 281.922C198.038 281.65 198.584 281.753 198.855 282.152C200.507 284.591 202.076 287.128 203.518 289.694C203.756 290.114 203.604 290.648 203.185 290.887C203.05 290.965 202.906 291.002 202.758 291.002ZM21.6075 290.352C21.4596 290.352 21.3117 290.315 21.1762 290.237C20.7572 289.999 20.6134 289.464 20.8516 289.044C22.31 286.487 23.8998 283.961 25.5676 281.535C25.8428 281.136 26.3851 281.037 26.7836 281.313C27.182 281.589 27.2806 282.131 27.0054 282.53C25.3622 284.916 23.8011 287.399 22.3675 289.916C22.2072 290.196 21.9115 290.352 21.6075 290.352ZM190.639 273.775C190.397 273.775 190.151 273.672 189.978 273.475C188.08 271.291 186.067 269.156 183.993 267.137C183.648 266.8 183.639 266.245 183.976 265.899C184.313 265.554 184.868 265.546 185.213 265.883C187.324 267.935 189.37 270.106 191.301 272.327C191.617 272.693 191.58 273.244 191.215 273.561C191.046 273.701 190.845 273.775 190.639 273.775ZM33.8493 273.199C33.6439 273.199 33.4385 273.129 33.2742 272.981C32.9127 272.66 32.8757 272.109 33.1961 271.747C35.1392 269.535 37.2015 267.376 39.3212 265.336C39.6704 265.003 40.2208 265.011 40.5577 265.361C40.8904 265.71 40.8822 266.261 40.5331 266.598C38.4462 268.605 36.4209 270.727 34.5107 272.903C34.3341 273.096 34.0917 273.199 33.8493 273.199ZM175.296 259.336C175.111 259.336 174.922 259.278 174.766 259.155C172.47 257.395 170.066 255.709 167.63 254.146C167.224 253.887 167.105 253.344 167.368 252.937C167.626 252.53 168.169 252.41 168.575 252.674C171.052 254.261 173.493 255.976 175.83 257.765C176.212 258.057 176.286 258.608 175.994 258.99C175.818 259.217 175.559 259.336 175.296 259.336ZM49.2707 258.855C49.0078 258.855 48.7449 258.735 48.5724 258.509C48.2807 258.123 48.3588 257.576 48.7408 257.284C51.0906 255.507 53.539 253.809 56.0284 252.242C56.4351 251.983 56.9774 252.106 57.2362 252.517C57.495 252.924 57.3718 253.467 56.961 253.726C54.5126 255.269 52.1012 256.938 49.7966 258.686C49.6405 258.797 49.4556 258.855 49.2707 258.855ZM157.373 248.265C157.245 248.265 157.114 248.236 156.991 248.179C154.386 246.912 151.7 245.744 149.001 244.703C148.549 244.531 148.327 244.025 148.5 243.573C148.672 243.12 149.177 242.898 149.629 243.071C152.373 244.128 155.109 245.32 157.755 246.608C158.19 246.817 158.371 247.344 158.157 247.776C158.009 248.084 157.697 248.265 157.373 248.265ZM67.2761 247.919C66.9475 247.919 66.6353 247.734 66.4874 247.418C66.282 246.982 66.4668 246.46 66.9023 246.25C69.5602 244.987 72.3043 243.823 75.0608 242.791C75.5127 242.623 76.0179 242.853 76.1864 243.305C76.3548 243.758 76.1247 244.263 75.6729 244.432C72.9616 245.448 70.2627 246.591 67.65 247.833C67.5267 247.891 67.3994 247.919 67.2761 247.919ZM137.593 241.023C137.523 241.023 137.449 241.015 137.375 240.994C134.569 240.278 131.702 239.678 128.847 239.205C128.37 239.127 128.05 238.675 128.128 238.198C128.206 237.72 128.658 237.4 129.134 237.478C132.035 237.959 134.955 238.572 137.806 239.3C138.275 239.419 138.558 239.896 138.439 240.365C138.34 240.756 137.983 241.023 137.593 241.023ZM87.1136 240.858C86.7193 240.858 86.3619 240.591 86.2633 240.192C86.1483 239.723 86.4359 239.25 86.9042 239.135C88.6419 238.707 90.4165 238.321 92.1829 237.98C93.3085 237.762 94.4546 237.56 95.5884 237.383C96.065 237.309 96.5128 237.634 96.5908 238.111C96.6648 238.588 96.3402 239.036 95.8637 239.115C94.7504 239.291 93.6207 239.489 92.5116 239.703C90.7739 240.036 89.028 240.418 87.319 240.838C87.2533 240.85 87.1835 240.858 87.1136 240.858ZM116.757 237.93C116.745 237.93 116.732 237.93 116.716 237.93C115.184 237.86 113.631 237.827 112.099 237.827C110.739 237.827 109.363 237.856 108.003 237.91C107.526 237.93 107.115 237.552 107.095 237.071C107.074 236.59 107.452 236.182 107.933 236.162C109.317 236.108 110.718 236.08 112.099 236.08C113.655 236.08 115.237 236.117 116.794 236.187C117.275 236.207 117.648 236.618 117.628 237.099C117.607 237.56 117.221 237.93 116.757 237.93Z" fill="#DEDEDE"/>
<path d="M431.959 366.582C431.454 366.615 430.953 366.643 430.451 366.672C429.971 366.701 429.556 366.331 429.531 365.85C429.502 365.369 429.868 364.957 430.349 364.928C430.353 364.928 430.353 364.928 430.357 364.928C433.216 364.768 436.108 364.534 438.963 364.238C439.444 364.184 439.875 364.538 439.924 365.019C439.974 365.5 439.625 365.932 439.144 365.981C436.761 366.224 434.346 366.425 431.959 366.582ZM418.325 366.956C418.304 366.956 418.279 366.96 418.259 366.956C415.367 366.927 412.438 366.828 409.55 366.66C409.069 366.631 408.7 366.22 408.728 365.735C408.757 365.253 409.172 364.883 409.653 364.912C412.512 365.077 415.412 365.175 418.275 365.204C418.76 365.208 419.146 365.603 419.142 366.088C419.138 366.553 418.776 366.927 418.325 366.956ZM451.131 364.328C450.692 364.357 450.289 364.048 450.215 363.6C450.133 363.123 450.453 362.671 450.93 362.588C453.76 362.107 456.607 361.548 459.4 360.935C459.873 360.832 460.337 361.128 460.44 361.601C460.542 362.074 460.247 362.539 459.774 362.642C456.956 363.263 454.081 363.822 451.226 364.312C451.193 364.324 451.16 364.324 451.131 364.328ZM397.575 365.554C397.522 365.558 397.464 365.554 397.411 365.549C394.539 365.188 391.639 364.756 388.796 364.258C388.32 364.176 388.003 363.723 388.086 363.246C388.168 362.769 388.624 362.453 389.096 362.535C391.914 363.028 394.786 363.456 397.629 363.814C398.109 363.876 398.446 364.312 398.388 364.793C398.331 365.212 397.986 365.529 397.575 365.554ZM471.404 359.669C471.006 359.693 470.624 359.442 470.508 359.039C470.373 358.575 470.64 358.089 471.104 357.954C473.856 357.156 476.621 356.276 479.328 355.346C479.784 355.19 480.281 355.433 480.437 355.889C480.594 356.346 480.351 356.843 479.895 357C477.159 357.937 474.366 358.826 471.589 359.632C471.527 359.656 471.466 359.664 471.404 359.669ZM377.101 361.774C377.015 361.778 376.924 361.774 376.838 361.75C374.028 361.063 371.193 360.294 368.412 359.471C367.948 359.335 367.685 358.846 367.821 358.385C367.956 357.921 368.445 357.658 368.905 357.793C371.658 358.608 374.468 359.368 377.253 360.051C377.721 360.166 378.009 360.639 377.894 361.108C377.803 361.49 377.475 361.749 377.101 361.774ZM491.011 352.727C490.65 352.751 490.297 352.546 490.149 352.192C489.96 351.748 490.169 351.234 490.617 351.045C493.259 349.934 495.908 348.746 498.492 347.512C498.928 347.302 499.449 347.487 499.659 347.923C499.868 348.359 499.683 348.881 499.248 349.091C496.639 350.337 493.965 351.538 491.299 352.661C491.201 352.698 491.106 352.723 491.011 352.727ZM357.189 355.663C357.07 355.671 356.947 355.655 356.828 355.61C354.117 354.602 351.389 353.516 348.723 352.381C348.279 352.192 348.074 351.678 348.263 351.234C348.452 350.79 348.965 350.58 349.409 350.773C352.05 351.9 354.749 352.973 357.436 353.973C357.888 354.141 358.118 354.643 357.953 355.1C357.83 355.429 357.522 355.642 357.189 355.663ZM509.682 343.585C509.358 343.605 509.033 343.445 508.865 343.14C508.627 342.721 508.779 342.186 509.198 341.948C511.687 340.545 514.177 339.065 516.6 337.543C517.011 337.288 517.549 337.412 517.804 337.819C518.059 338.23 517.935 338.769 517.529 339.024C515.084 340.558 512.57 342.055 510.056 343.474C509.937 343.539 509.81 343.576 509.682 343.585ZM338.112 347.315C337.96 347.323 337.804 347.294 337.66 347.22C335.08 345.908 332.496 344.518 329.978 343.091C329.559 342.853 329.411 342.318 329.649 341.898C329.888 341.479 330.422 341.331 330.841 341.569C333.33 342.988 335.889 344.362 338.449 345.661C338.88 345.879 339.052 346.406 338.835 346.838C338.691 347.125 338.412 347.294 338.112 347.315ZM527.17 332.37C526.878 332.39 526.587 332.263 526.406 332.008C526.123 331.617 526.209 331.07 526.599 330.786C528.916 329.104 531.221 327.348 533.455 325.56C533.833 325.259 534.384 325.317 534.684 325.695C534.984 326.074 534.926 326.625 534.548 326.925C532.293 328.73 529.964 330.507 527.626 332.201C527.491 332.304 527.33 332.357 527.17 332.37ZM320.119 336.852C319.934 336.865 319.745 336.82 319.581 336.708C317.165 335.113 314.758 333.439 312.42 331.732C312.03 331.449 311.944 330.902 312.231 330.511C312.515 330.12 313.061 330.034 313.451 330.322C315.764 332.012 318.151 333.669 320.542 335.249C320.944 335.516 321.055 336.059 320.788 336.462C320.636 336.696 320.382 336.836 320.119 336.852ZM543.278 319.218C543.023 319.234 542.76 319.14 542.575 318.934C542.251 318.576 542.275 318.025 542.629 317.696C544.74 315.764 546.831 313.753 548.852 311.717C549.193 311.375 549.748 311.371 550.089 311.713C550.43 312.054 550.434 312.609 550.093 312.951C548.055 315.003 545.944 317.034 543.812 318.988C543.66 319.132 543.471 319.206 543.278 319.218ZM303.428 324.416C303.21 324.429 302.988 324.363 302.812 324.215C300.593 322.36 298.392 320.423 296.264 318.465C295.91 318.136 295.886 317.585 296.214 317.228C296.543 316.874 297.093 316.849 297.451 317.178C299.558 319.119 301.74 321.036 303.937 322.874C304.307 323.182 304.356 323.738 304.048 324.108C303.884 324.297 303.662 324.4 303.428 324.416ZM557.795 304.314C557.573 304.327 557.347 304.257 557.167 304.1C556.801 303.784 556.764 303.229 557.08 302.867C558.962 300.704 560.815 298.466 562.589 296.217C562.889 295.838 563.44 295.773 563.818 296.073C564.196 296.373 564.261 296.924 563.961 297.302C562.17 299.573 560.297 301.83 558.399 304.014C558.239 304.199 558.017 304.298 557.795 304.314ZM288.261 310.175C288.011 310.191 287.756 310.101 287.571 309.903C285.579 307.806 283.611 305.634 281.721 303.451C281.405 303.085 281.446 302.534 281.812 302.217C282.177 301.9 282.728 301.941 283.044 302.307C284.917 304.475 286.864 306.626 288.836 308.702C289.169 309.052 289.157 309.607 288.808 309.94C288.656 310.08 288.458 310.162 288.261 310.175ZM570.534 287.852C570.345 287.864 570.152 287.815 569.984 287.7C569.585 287.424 569.487 286.881 569.758 286.483C571.38 284.118 572.97 281.683 574.478 279.249C574.733 278.837 575.271 278.71 575.682 278.965C576.092 279.22 576.22 279.759 575.965 280.17C574.441 282.629 572.839 285.088 571.2 287.474C571.04 287.708 570.793 287.836 570.534 287.852ZM274.816 294.305C274.532 294.321 274.245 294.202 274.06 293.959C272.322 291.652 270.613 289.271 268.986 286.886C268.715 286.487 268.818 285.944 269.217 285.668C269.615 285.397 270.157 285.5 270.432 285.899C272.047 288.263 273.735 290.62 275.457 292.906C275.748 293.293 275.67 293.84 275.284 294.132C275.144 294.239 274.98 294.296 274.816 294.305ZM581.334 270.045C581.178 270.053 581.018 270.024 580.87 269.942C580.443 269.716 580.282 269.185 580.508 268.758C581.856 266.22 583.158 263.621 584.382 261.03C584.588 260.594 585.109 260.405 585.545 260.611C585.98 260.816 586.169 261.339 585.964 261.775C584.731 264.39 583.413 267.018 582.053 269.576C581.901 269.864 581.626 270.028 581.334 270.045ZM263.268 277.016C262.948 277.036 262.631 276.88 262.459 276.588C260.996 274.1 259.571 271.542 258.232 268.984C258.006 268.556 258.17 268.026 258.597 267.804C259.025 267.577 259.555 267.742 259.776 268.17C261.107 270.703 262.516 273.236 263.966 275.7C264.213 276.115 264.073 276.654 263.658 276.896C263.535 276.966 263.4 277.007 263.268 277.016ZM590.043 251.119C589.92 251.127 589.793 251.107 589.669 251.062C589.221 250.885 589 250.379 589.176 249.927C590.228 247.253 591.226 244.519 592.142 241.8C592.298 241.344 592.791 241.097 593.251 241.253C593.707 241.41 593.954 241.907 593.798 242.364C592.869 245.107 591.863 247.866 590.803 250.568C590.672 250.893 590.368 251.099 590.043 251.119ZM253.775 258.509C253.421 258.534 253.072 258.337 252.92 257.991C251.749 255.347 250.628 252.633 249.584 249.935C249.412 249.482 249.634 248.977 250.086 248.804C250.537 248.627 251.043 248.853 251.215 249.306C252.25 251.979 253.36 254.664 254.518 257.284C254.715 257.724 254.514 258.242 254.074 258.439C253.976 258.48 253.873 258.505 253.775 258.509ZM596.534 231.313C596.443 231.317 596.349 231.309 596.254 231.285C595.786 231.161 595.511 230.68 595.634 230.215C596.369 227.435 597.051 224.606 597.651 221.797C597.754 221.324 598.218 221.024 598.69 221.127C599.163 221.229 599.463 221.694 599.36 222.167C598.752 225.001 598.066 227.859 597.322 230.668C597.224 231.034 596.899 231.289 596.534 231.313ZM246.454 239.02C246.06 239.045 245.686 238.802 245.563 238.407C244.704 235.644 243.899 232.823 243.172 230.022C243.049 229.553 243.332 229.076 243.796 228.953C244.265 228.829 244.741 229.113 244.864 229.578C245.587 232.354 246.384 235.146 247.235 237.885C247.378 238.346 247.12 238.835 246.66 238.979C246.594 239.004 246.524 239.016 246.454 239.02ZM600.716 210.895C600.654 210.899 600.592 210.895 600.531 210.887C600.054 210.817 599.721 210.373 599.791 209.895C600.202 207.062 600.551 204.175 600.827 201.321C600.872 200.84 601.303 200.486 601.78 200.535C602.26 200.581 602.614 201.008 602.564 201.489C602.285 204.372 601.932 207.284 601.517 210.146C601.459 210.562 601.118 210.87 600.716 210.895ZM241.409 218.82C240.974 218.848 240.58 218.548 240.493 218.108C239.955 215.27 239.475 212.375 239.064 209.505C238.994 209.028 239.327 208.584 239.807 208.514C240.288 208.448 240.728 208.777 240.797 209.258C241.2 212.1 241.676 214.97 242.211 217.783C242.301 218.256 241.989 218.717 241.516 218.807C241.483 218.815 241.446 218.82 241.409 218.82ZM602.519 190.151C602.49 190.151 602.466 190.155 602.437 190.151C601.956 190.139 601.574 189.732 601.591 189.251C601.677 186.384 601.693 183.481 601.64 180.614C601.632 180.129 602.018 179.734 602.499 179.722C602.983 179.714 603.382 180.096 603.39 180.582C603.443 183.477 603.427 186.409 603.341 189.304C603.324 189.761 602.963 190.123 602.519 190.151ZM238.673 198.175C238.197 198.208 237.782 197.846 237.745 197.369C237.692 196.686 237.647 196.003 237.601 195.325C237.458 193.112 237.355 190.871 237.293 188.659C237.281 188.177 237.655 187.774 238.144 187.758C238.624 187.746 239.027 188.124 239.043 188.609C239.105 190.801 239.208 193.022 239.351 195.21C239.397 195.884 239.442 196.559 239.495 197.233C239.532 197.714 239.171 198.134 238.69 198.171C238.682 198.175 238.678 198.175 238.673 198.175ZM601.948 169.338C601.476 169.367 601.061 169.013 601.02 168.54C600.781 165.69 600.469 162.799 600.091 159.949L600.054 159.674C599.989 159.197 600.325 158.757 600.806 158.691C601.287 158.625 601.726 158.962 601.788 159.443L601.825 159.723C602.203 162.598 602.519 165.513 602.761 168.392C602.802 168.873 602.445 169.297 601.964 169.338C601.956 169.334 601.952 169.338 601.948 169.338ZM238.283 177.357C238.255 177.357 238.222 177.361 238.193 177.357C237.712 177.337 237.334 176.934 237.351 176.448C237.462 173.553 237.642 170.625 237.893 167.742C237.934 167.261 238.357 166.903 238.838 166.944C239.319 166.986 239.676 167.409 239.635 167.89C239.388 170.744 239.208 173.648 239.101 176.51C239.084 176.967 238.727 177.329 238.283 177.357ZM598.978 148.438C598.547 148.467 598.152 148.171 598.066 147.739C597.503 144.926 596.862 142.093 596.168 139.313C596.049 138.844 596.336 138.367 596.805 138.252C597.273 138.132 597.75 138.42 597.865 138.889C598.567 141.694 599.212 144.556 599.783 147.398C599.878 147.871 599.574 148.331 599.097 148.43C599.056 148.434 599.019 148.438 598.978 148.438ZM240.267 156.63C240.206 156.634 240.14 156.63 240.079 156.622C239.602 156.548 239.273 156.1 239.347 155.623C239.791 152.756 240.309 149.861 240.888 147.015C240.982 146.542 241.446 146.238 241.919 146.333C242.391 146.427 242.699 146.892 242.601 147.365C242.026 150.182 241.512 153.048 241.077 155.89C241.011 156.301 240.67 156.602 240.267 156.63ZM593.732 128.295C593.342 128.32 592.968 128.081 592.845 127.691C591.966 124.964 591.008 122.217 589.998 119.536C589.829 119.083 590.055 118.577 590.507 118.409C590.959 118.24 591.464 118.466 591.633 118.919C592.652 121.629 593.617 124.397 594.508 127.152C594.656 127.613 594.406 128.106 593.946 128.254C593.872 128.275 593.802 128.287 593.732 128.295ZM244.63 136.232C244.536 136.236 244.437 136.228 244.343 136.204C243.878 136.076 243.603 135.595 243.73 135.126C244.499 132.33 245.345 129.517 246.245 126.761C246.397 126.301 246.89 126.05 247.346 126.202C247.806 126.354 248.056 126.848 247.904 127.304C247.013 130.035 246.175 132.823 245.415 135.591C245.312 135.961 244.992 136.208 244.63 136.232ZM586.214 108.88C585.861 108.905 585.516 108.712 585.364 108.37C584.177 105.759 582.912 103.143 581.601 100.598C581.379 100.17 581.548 99.6393 581.979 99.4173C582.41 99.1952 582.936 99.3638 583.158 99.7956C584.481 102.37 585.758 105.01 586.958 107.646C587.159 108.086 586.962 108.605 586.527 108.806C586.424 108.847 586.317 108.872 586.214 108.88ZM251.293 116.48C251.166 116.488 251.034 116.468 250.911 116.418C250.463 116.237 250.246 115.727 250.427 115.279C251.507 112.594 252.669 109.896 253.881 107.26C254.083 106.82 254.6 106.626 255.04 106.832C255.479 107.034 255.672 107.552 255.467 107.992C254.268 110.599 253.117 113.272 252.045 115.933C251.918 116.258 251.618 116.459 251.293 116.48ZM576.532 90.4684C576.216 90.489 575.899 90.3368 575.727 90.0448C574.252 87.5938 572.699 85.1469 571.105 82.7657C570.838 82.3627 570.945 81.8198 571.343 81.5525C571.746 81.2852 572.288 81.3922 572.555 81.7911C574.162 84.1928 575.731 86.6644 577.218 89.1401C577.468 89.5555 577.333 90.0901 576.922 90.3409C576.803 90.4191 576.667 90.4602 576.532 90.4684ZM260.167 97.6283C260.006 97.6365 259.842 97.6036 259.694 97.5255C259.271 97.2952 259.111 96.7647 259.345 96.337C260.725 93.7914 262.184 91.2457 263.687 88.77C263.938 88.3587 264.476 88.223 264.887 88.4739C265.297 88.7248 265.433 89.2635 265.182 89.6747C263.695 92.1299 262.249 94.6508 260.885 97.1718C260.733 97.4473 260.458 97.6119 260.167 97.6283ZM564.808 73.2988C564.528 73.3152 564.241 73.2 564.06 72.9615C562.314 70.6914 560.486 68.4337 558.637 66.254C558.325 65.8839 558.37 65.3328 558.736 65.0203C559.106 64.7077 559.656 64.753 559.968 65.119C561.838 67.3233 563.678 69.6016 565.444 71.8923C565.74 72.2747 565.67 72.8258 565.284 73.1178C565.144 73.2288 564.976 73.2864 564.808 73.2988ZM271.123 79.9158C270.93 79.9281 270.736 79.8787 270.564 79.7595C270.17 79.4839 270.071 78.937 270.35 78.5422C272.01 76.1734 273.748 73.8087 275.518 71.518C275.814 71.1356 276.364 71.0656 276.747 71.3617C277.129 71.6578 277.198 72.209 276.903 72.5914C275.148 74.8574 273.427 77.2015 271.784 79.5497C271.624 79.7718 271.377 79.8993 271.123 79.9158ZM551.202 57.5684C550.955 57.5849 550.705 57.4944 550.516 57.3052C548.524 55.249 546.453 53.2133 544.362 51.2558C544.009 50.9268 543.992 50.3716 544.321 50.0179C544.65 49.6642 545.204 49.6477 545.558 49.9767C547.665 51.9549 549.756 54.0111 551.769 56.0838C552.106 56.4293 552.097 56.9845 551.752 57.3217C551.596 57.4739 551.399 57.5561 551.202 57.5684ZM284.005 63.5645C283.779 63.5809 283.549 63.5069 283.369 63.3465C283.007 63.0257 282.974 62.4746 283.295 62.1127C285.209 59.9454 287.205 57.7946 289.222 55.7219C289.559 55.3765 290.114 55.3682 290.459 55.7055C290.804 56.0427 290.812 56.5979 290.475 56.9433C288.479 58.9955 286.503 61.1258 284.605 63.2725C284.445 63.4534 284.227 63.5521 284.005 63.5645ZM535.887 43.479C535.674 43.4914 535.456 43.4297 535.275 43.2816C533.061 41.4639 530.773 39.6749 528.472 37.9641C528.086 37.6763 528.004 37.1293 528.292 36.7386C528.579 36.3521 529.126 36.2698 529.516 36.5577C531.837 38.285 534.146 40.0903 536.384 41.9245C536.758 42.2288 536.812 42.784 536.508 43.1541C536.347 43.3556 536.121 43.4626 535.887 43.479ZM298.65 48.7883C298.391 48.8047 298.129 48.706 297.944 48.5004C297.619 48.1426 297.652 47.5874 298.01 47.2625C300.158 45.3296 302.38 43.4215 304.619 41.5914C304.993 41.2871 305.544 41.3405 305.848 41.7147C306.152 42.089 306.098 42.64 305.724 42.9444C303.51 44.7539 301.308 46.6456 299.18 48.5621C299.028 48.7019 298.839 48.7759 298.65 48.7883ZM519.077 31.2155C518.897 31.2279 518.712 31.1826 518.547 31.0757C516.14 29.5212 513.663 28.0037 511.186 26.5643C510.767 26.3217 510.627 25.787 510.87 25.3676C511.112 24.9481 511.646 24.8082 512.065 25.0509C514.567 26.5026 517.069 28.0366 519.5 29.6076C519.907 29.8708 520.022 30.4095 519.759 30.8166C519.599 31.0593 519.344 31.1991 519.077 31.2155ZM314.873 35.7804C314.581 35.801 314.285 35.6694 314.105 35.4144C313.825 35.0196 313.916 34.4727 314.31 34.193C316.664 32.5192 319.088 30.8783 321.515 29.3155C321.922 29.0523 322.464 29.1716 322.723 29.5787C322.982 29.9859 322.867 30.5288 322.46 30.7879C320.053 32.3342 317.654 33.9586 315.325 35.6159C315.185 35.7187 315.029 35.7722 314.873 35.7804ZM500.973 20.9343C500.825 20.9425 500.674 20.9178 500.53 20.8438C497.962 19.573 495.325 18.3434 492.7 17.196C492.256 17.0027 492.055 16.4887 492.248 16.0445C492.441 15.6004 492.955 15.3988 493.398 15.5921C496.052 16.7519 498.71 17.9898 501.306 19.2729C501.737 19.4867 501.918 20.0131 501.701 20.4449C501.561 20.741 501.277 20.9137 500.973 20.9343ZM332.463 24.7178C332.135 24.7384 331.81 24.5739 331.642 24.2654C331.407 23.8418 331.564 23.3113 331.987 23.0769C334.521 21.6787 337.122 20.3256 339.718 19.0508C340.153 18.8369 340.675 19.0178 340.889 19.4497C341.102 19.8856 340.922 20.4079 340.49 20.6218C337.919 21.8843 335.343 23.225 332.833 24.6068C332.71 24.6767 332.586 24.7096 332.463 24.7178ZM481.818 12.7792C481.703 12.7874 481.584 12.771 481.464 12.7298C478.766 11.7593 476.005 10.8422 473.265 10.0033C472.805 9.86344 472.542 9.37406 472.686 8.90935C472.825 8.44875 473.314 8.18553 473.778 8.32947C476.547 9.17664 479.333 10.102 482.06 11.0848C482.516 11.2493 482.75 11.7511 482.586 12.2035C482.463 12.5407 482.155 12.7586 481.818 12.7792ZM351.225 15.7361C350.859 15.7608 350.506 15.551 350.358 15.1932C350.173 14.745 350.391 14.235 350.834 14.05C353.509 12.956 356.249 11.9074 358.972 10.9409C359.428 10.7805 359.925 11.0191 360.09 11.4714C360.25 11.9279 360.011 12.4255 359.56 12.59C356.861 13.5483 354.145 14.5846 351.5 15.6703C351.409 15.7073 351.319 15.7279 351.225 15.7361ZM461.845 6.87365C461.763 6.87777 461.676 6.87366 461.59 6.8531C458.792 6.19921 455.946 5.6029 453.123 5.08473C452.647 4.99836 452.335 4.54186 452.421 4.06481C452.507 3.58776 452.963 3.27523 453.44 3.36159C456.291 3.88388 459.166 4.48429 461.989 5.1464C462.457 5.25744 462.753 5.72626 462.642 6.1992C462.547 6.58577 462.219 6.84898 461.845 6.87365ZM370.894 8.9669C370.491 8.99158 370.109 8.73661 369.998 8.32947C369.867 7.86476 370.138 7.37948 370.602 7.252C373.383 6.47062 376.222 5.74271 379.044 5.09293C379.516 4.98601 379.985 5.27801 380.091 5.75095C380.198 6.22389 379.907 6.69271 379.434 6.79963C376.641 7.44118 373.827 8.16087 371.074 8.93814C371.013 8.95459 370.955 8.96279 370.894 8.9669ZM441.333 3.30401C441.28 3.30812 441.231 3.30812 441.177 3.29989C438.335 2.97089 435.443 2.71179 432.583 2.51851C432.103 2.48561 431.737 2.07026 431.77 1.58498C431.803 1.09971 432.218 0.737793 432.703 0.770693C435.59 0.96398 438.507 1.2272 441.379 1.56031C441.859 1.61377 442.204 2.04969 442.147 2.53085C442.093 2.95855 441.744 3.27933 441.333 3.30401ZM391.204 4.48841C390.76 4.5172 390.357 4.20463 390.283 3.75637C390.205 3.27932 390.53 2.83106 391.006 2.75292C392.785 2.46505 394.597 2.19774 396.388 1.96333C397.468 1.81939 398.561 1.68778 399.637 1.5644C400.114 1.51094 400.549 1.85641 400.607 2.33346C400.66 2.81463 400.315 3.24643 399.839 3.30401C398.77 3.42738 397.69 3.55897 396.622 3.69879C394.847 3.9332 393.052 4.19641 391.29 4.48018C391.261 4.48429 391.232 4.4843 391.204 4.48841ZM420.568 2.11549C420.547 2.11549 420.531 2.11549 420.51 2.11549C417.651 2.11549 414.747 2.1854 411.883 2.32111C411.403 2.34579 410.992 1.97154 410.967 1.49038C410.943 1.01333 411.308 0.606205 411.785 0.577417C411.789 0.577417 411.793 0.577417 411.801 0.577417C414.693 0.437592 417.622 0.367676 420.51 0.367676C420.995 0.367676 421.385 0.758365 421.385 1.24364C421.385 1.70835 421.024 2.0867 420.568 2.11549Z" fill="#DEDEDE"/>
<path d="M449.288 109.189V410.281H448.499L425.728 388.098L402.958 410.281H400.583L377.813 388.098L355.038 410.281H352.701L329.967 388.139L307.237 410.281H304.908L282.154 388.115L259.396 410.281H256.996L234.238 388.115L211.48 410.281H209.105L186.392 388.156L163.679 410.281H162.18V25.5073H365.698L449.288 109.189Z" fill="#F2F2F2"/>
<path d="M449.289 109.189H365.699V25.5073L449.289 109.189Z" fill="#DEDEDE"/>
<path d="M239.442 265.825V254.565H209.084C205.255 254.565 202.38 253.698 200.465 251.962C198.551 250.227 197.594 247.866 197.594 244.88C197.594 244.115 197.733 243.338 198.017 242.549C198.3 241.763 198.723 240.936 199.286 240.065C199.849 239.197 200.437 238.362 201.04 237.552C201.644 236.746 202.392 235.755 203.279 234.587L235.33 191.665C237.425 188.839 239.15 186.791 240.502 185.521C241.853 184.25 243.476 183.612 245.37 183.612C251.499 183.612 254.564 187.124 254.564 194.144V241.002H257.164C260.27 241.002 262.759 241.426 264.632 242.273C266.506 243.12 267.442 244.979 267.442 247.841C267.442 250.181 266.674 251.888 265.146 252.957C263.613 254.027 261.317 254.561 258.253 254.561H254.564V265.821C254.564 268.93 253.878 271.237 252.51 272.751C251.137 274.264 249.305 275.021 247.005 275.021C244.745 275.021 242.922 274.244 241.533 272.689C240.14 271.143 239.442 268.852 239.442 265.825ZM213.442 241.002H239.446V205.828L213.442 241.002Z" fill="#3364A3"/>
<path d="M337.404 229.985C337.404 236.606 337.002 242.294 336.197 247.056C335.391 251.818 333.9 256.136 331.723 260.01C328.983 264.773 325.434 268.445 321.079 271.028C316.725 273.61 311.885 274.902 306.565 274.902C300.436 274.902 294.944 273.166 290.088 269.695C285.229 266.224 281.572 261.421 279.112 255.289C277.863 251.942 276.943 248.236 276.359 244.181C275.776 240.126 275.484 235.734 275.484 231.013C275.484 224.918 275.805 219.432 276.454 214.547C277.099 209.665 278.105 205.466 279.477 201.954C281.856 196.143 285.315 191.714 289.85 188.667C294.385 185.619 299.8 184.098 306.085 184.098C310.238 184.098 314.005 184.772 317.394 186.125C320.779 187.478 323.753 189.456 326.313 192.06C328.872 194.663 331.041 197.883 332.812 201.716C335.872 208.374 337.404 217.8 337.404 229.985ZM320.837 228.776C320.837 221.39 320.393 215.349 319.506 210.644C318.618 205.943 317.127 202.39 315.032 199.988C312.937 197.587 310.033 196.386 306.323 196.386C301.003 196.386 297.302 199.071 295.227 204.438C293.149 209.805 292.114 218.079 292.114 229.257C292.114 236.845 292.557 243.059 293.445 247.903C294.332 252.748 295.823 256.408 297.918 258.892C300.013 261.376 302.856 262.614 306.446 262.614C310.156 262.614 313.056 261.322 315.155 258.74C317.25 256.157 318.725 252.464 319.571 247.66C320.414 242.861 320.837 236.565 320.837 228.776Z" fill="#3364A3"/>
<path d="M386.633 265.825V254.565H356.275C352.447 254.565 349.571 253.698 347.657 251.962C345.742 250.227 344.785 247.866 344.785 244.88C344.785 244.115 344.925 243.338 345.208 242.549C345.492 241.763 345.915 240.936 346.478 240.065C347.04 239.197 347.628 238.362 348.232 237.552C348.836 236.746 349.583 235.755 350.471 234.587L382.521 191.665C384.616 188.839 386.342 186.791 387.693 185.521C389.045 184.25 390.667 183.612 392.561 183.612C398.69 183.612 401.755 187.124 401.755 194.144V241.002H404.355C407.461 241.002 409.95 241.426 411.824 242.273C413.697 243.12 414.638 244.979 414.638 247.841C414.638 250.181 413.869 251.888 412.341 252.957C410.809 254.027 408.513 254.561 405.448 254.561H401.759V265.821C401.759 268.93 401.073 271.237 399.701 272.751C398.329 274.264 396.497 275.021 394.196 275.021C391.937 275.021 390.113 274.244 388.724 272.689C387.328 271.143 386.633 268.852 386.633 265.825ZM360.63 241.002H386.633V205.828L360.63 241.002Z" fill="#3364A3"/>
<path d="M303.497 498.663C299.541 502.623 293.129 502.623 289.177 498.663L227.692 437.111L219.879 429.289C225.568 425.53 230.445 420.645 234.199 414.953L303.497 484.327C307.453 488.283 307.453 494.702 303.497 498.663Z" fill="#9C9C9C"/>
<path d="M237.316 418.066L253.338 434.109C249.583 439.805 244.707 444.686 239.021 448.445L230.813 440.224L223 432.402C228.685 428.648 233.562 423.762 237.316 418.066Z" fill="#5E5E5E"/>
<path d="M253.278 384.664C253.171 382.069 252.896 379.515 252.473 377.011C250.065 362.782 242.749 350.222 232.323 341.15C221.597 331.81 207.585 326.152 192.253 326.152C158.523 326.152 131.176 353.529 131.176 387.296C131.176 389.632 131.307 391.939 131.562 394.209C132.363 401.324 134.38 408.069 137.408 414.229C141.754 423.083 148.175 430.728 156.037 436.535C157.315 437.481 158.634 438.378 159.985 439.221C169.351 445.065 180.41 448.441 192.253 448.441C205.465 448.441 217.694 444.242 227.685 437.107C233.214 433.159 238.058 428.31 242.006 422.775C245.97 417.211 249.026 410.955 250.957 404.223C252.497 398.848 253.323 393.173 253.323 387.304C253.335 386.416 253.315 385.536 253.278 384.664ZM192.258 437.567C181.269 437.567 171.11 434.035 162.84 428.043C154.817 422.228 148.577 414.093 145.102 404.618C143.122 399.218 142.046 393.387 142.046 387.3C142.046 385.01 142.198 382.756 142.497 380.548C144.995 361.906 157.701 346.504 174.799 340.155C180.238 338.135 186.12 337.033 192.262 337.033C194.484 337.033 196.67 337.177 198.814 337.457C208.994 338.781 218.216 343.161 225.537 349.65C235.93 358.858 242.478 372.314 242.478 387.3C242.478 388.065 242.462 388.826 242.425 389.583C242.26 393.272 241.697 396.858 240.781 400.3C239.376 405.576 237.133 410.507 234.209 414.949C230.454 420.645 225.578 425.53 219.888 429.285C218.491 430.206 217.049 431.057 215.558 431.839C212.379 433.508 208.998 434.845 205.461 435.807C201.246 436.955 196.826 437.567 192.258 437.567Z" fill="#B8B8B8"/>
<path d="M154.234 392.828C151.646 392.828 149.547 390.726 149.547 388.135C149.547 376.493 154.078 365.545 162.302 357.312C170.526 349.079 181.462 344.543 193.092 344.543C195.68 344.543 197.779 346.644 197.779 349.235C197.779 351.826 195.68 353.927 193.092 353.927C183.964 353.927 175.386 357.485 168.933 363.946C162.479 370.406 158.925 378.993 158.925 388.131C158.925 390.726 156.826 392.828 154.234 392.828Z" fill="white"/>
</svg>
