<svg width="27" height="27" viewBox="0 0 27 27" fill="none" xmlns="http://www.w3.org/2000/svg">
<path d="M13.5 0C6.04234 0 0 6.04234 0 13.5C0 20.9577 6.04234 27 13.5 27C20.9577 27 27 20.9577 27 13.5C27 6.04234 20.9577 0 13.5 0ZM13.5 5.22581C16.1456 5.22581 18.2903 7.37056 18.2903 10.0161C18.2903 12.6617 16.1456 14.8065 13.5 14.8065C10.8544 14.8065 8.70968 12.6617 8.70968 10.0161C8.70968 7.37056 10.8544 5.22581 13.5 5.22581ZM13.5 23.9516C10.3046 23.9516 7.44133 22.5036 5.5252 20.2391C6.54859 18.3121 8.55181 16.9839 10.8871 16.9839C11.0177 16.9839 11.1484 17.0056 11.2736 17.0437C11.9812 17.2724 12.7216 17.4194 13.5 17.4194C14.2784 17.4194 15.0242 17.2724 15.7264 17.0437C15.8516 17.0056 15.9823 16.9839 16.1129 16.9839C18.4482 16.9839 20.4514 18.3121 21.4748 20.2391C19.5587 22.5036 16.6954 23.9516 13.5 23.9516Z" fill="#3364A3"/>
</svg>
