<svg width="26" height="26" viewBox="0 0 26 26" fill="none" xmlns="http://www.w3.org/2000/svg">
<path d="M7.58196 2.98302C8.98777 3.94507 10.9235 3.31611 11.4954 1.71148C11.9995 0.296695 14.0004 0.296695 14.5045 1.71148C15.0764 3.31611 17.0121 3.94507 18.4179 2.98302C19.6574 2.13479 21.2761 3.31084 20.8524 4.75177C20.3719 6.38607 21.5682 8.03271 23.271 8.08071C24.7724 8.12303 25.3907 10.0259 24.2009 10.9426C22.8515 11.9823 22.8515 14.0177 24.2009 15.0574C25.3907 15.9741 24.7724 17.877 23.271 17.9193C21.5682 17.9673 20.3719 19.6139 20.8524 21.2482C21.2761 22.6892 19.6574 23.8652 18.4179 23.017C17.0121 22.0549 15.0764 22.6839 14.5045 24.2885C14.0004 25.7033 11.9995 25.7033 11.4954 24.2885C10.9235 22.6839 8.98777 22.0549 7.58197 23.017C6.34248 23.8652 4.72379 22.6892 5.14748 21.2482C5.62803 19.6139 4.43167 17.9673 2.72887 17.9193C1.22753 17.877 0.609243 15.9741 1.79898 15.0574C3.14837 14.0177 3.14837 11.9823 1.79898 10.9426C0.609243 10.0259 1.22753 8.12303 2.72887 8.08071C4.43167 8.03271 5.62803 6.38607 5.14748 4.75177C4.72379 3.31084 6.34248 2.13479 7.58196 2.98302Z" fill="white" stroke="#E44C21"/>
<path d="M17.0604 8.93936C16.7322 8.61136 16.2002 8.61136 15.872 8.93936L8.93918 15.8721C8.61109 16.2001 8.61109 16.7323 8.93918 17.0605C9.10339 17.2246 9.31834 17.3066 9.53346 17.3066C9.74859 17.3066 9.96362 17.2246 10.1277 17.0605L17.0605 10.1278C17.3886 9.79959 17.3886 9.26753 17.0604 8.93936Z" fill="#E44C21"/>
<path d="M12.4539 10.227C12.4539 8.99899 11.4548 8 10.227 8C8.99899 8 8 8.99899 8 10.227C8 11.4548 8.99899 12.4538 10.227 12.4538C11.4548 12.4538 12.4539 11.4548 12.4539 10.227ZM9.6807 10.227C9.6807 9.92568 9.92568 9.6807 10.227 9.6807C10.528 9.6807 10.7731 9.92568 10.7731 10.227C10.7731 10.528 10.528 10.7731 10.227 10.7731C9.92568 10.7732 9.6807 10.5281 9.6807 10.227Z" fill="#E44C21"/>
<path d="M15.773 13.5464C14.545 13.5464 13.546 14.5453 13.546 15.7734C13.546 17.0012 14.545 18.0001 15.773 18.0001C17.0009 18.0001 17.9997 17.0011 17.9997 15.7734C17.9998 14.5453 17.0009 13.5464 15.773 13.5464ZM15.773 16.3194C15.4718 16.3194 15.2268 16.0744 15.2268 15.7734C15.2268 15.4721 15.4718 15.2271 15.773 15.2271C16.0741 15.2271 16.3191 15.4721 16.3191 15.7734C16.3192 16.0743 16.0741 16.3194 15.773 16.3194Z" fill="#E44C21"/>
</svg>
