<svg width="19" height="19" viewBox="0 0 19 19" fill="none" xmlns="http://www.w3.org/2000/svg">
<path d="M12.6435 1.64879C11.8453 0.787051 10.7305 0.3125 9.50004 0.3125C8.26301 0.3125 7.14451 0.78418 6.35004 1.64059C5.54695 2.50643 5.15566 3.68316 5.24754 4.95383C5.42965 7.4607 7.33729 9.5 9.50004 9.5C11.6628 9.5 13.5671 7.46111 13.7521 4.95465C13.8452 3.69547 13.4515 2.52119 12.6435 1.64879Z" fill="#B3B3B3"/>
<path d="M16.7187 18.6875H2.28124C2.09227 18.69 1.90512 18.6503 1.73342 18.5713C1.56172 18.4923 1.40978 18.3761 1.28866 18.231C1.02206 17.9123 0.9146 17.4771 0.99417 17.037C1.34034 15.1167 2.42069 13.5035 4.11874 12.3711C5.6273 11.3658 7.53821 10.8125 9.49999 10.8125C11.4618 10.8125 13.3727 11.3662 14.8812 12.3711C16.5793 13.5031 17.6596 15.1163 18.0058 17.0366C18.0854 17.4767 17.9779 17.9119 17.7113 18.2306C17.5902 18.3757 17.4383 18.4921 17.2666 18.5711C17.0949 18.6501 16.9077 18.6899 16.7187 18.6875Z" fill="#B3B3B3"/>
</svg>
