<svg width="42" height="34" viewBox="0 0 42 34" fill="none" xmlns="http://www.w3.org/2000/svg">
<path d="M4.464 29.283C4.99133 29.283 5.34367 29.4837 5.521 29.885C5.79633 29.4837 6.16267 29.283 6.62 29.283C7.05867 29.283 7.38767 29.395 7.607 29.619C7.82633 29.843 7.936 30.1603 7.936 30.571V33H6.942V30.907C6.942 30.627 6.90233 30.417 6.823 30.277C6.74367 30.137 6.58033 30.067 6.333 30.067C5.88967 30.067 5.668 30.3703 5.668 30.977V33H4.674V30.865C4.674 30.5943 4.63433 30.3937 4.555 30.263C4.47567 30.1323 4.31467 30.067 4.072 30.067C3.91333 30.067 3.76167 30.1323 3.617 30.263C3.47233 30.389 3.4 30.599 3.4 30.893V33H2.406V29.381H3.344V29.871H3.358C3.63333 29.479 4.002 29.283 4.464 29.283ZM10.3878 29.283C11.4424 29.283 11.9698 29.626 11.9698 30.312V32.23C11.9698 32.608 12.0118 32.8647 12.0958 33H11.0878C11.0458 32.8693 11.0224 32.7527 11.0178 32.65C10.7331 32.9487 10.3271 33.098 9.79975 33.098C9.42175 33.098 9.12075 33.0047 8.89675 32.818C8.67742 32.6267 8.56775 32.3583 8.56775 32.013C8.56775 31.6817 8.67275 31.425 8.88275 31.243C9.09742 31.061 9.48708 30.9397 10.0518 30.879C10.4064 30.8417 10.6491 30.795 10.7798 30.739C10.9104 30.683 10.9758 30.5803 10.9758 30.431C10.9758 30.2443 10.9198 30.1183 10.8078 30.053C10.6958 29.983 10.5394 29.948 10.3388 29.948C9.92808 29.948 9.70642 30.13 9.67375 30.494H8.67975C8.69842 30.102 8.85942 29.8033 9.16275 29.598C9.46608 29.388 9.87442 29.283 10.3878 29.283ZM9.56175 31.971C9.56175 32.279 9.76475 32.433 10.1708 32.433C10.7074 32.433 10.9758 32.16 10.9758 31.614V31.229C10.8918 31.3037 10.6911 31.362 10.3738 31.404C10.0938 31.4367 9.88842 31.495 9.75775 31.579C9.62708 31.6583 9.56175 31.789 9.56175 31.971ZM14.2253 29.283C14.7153 29.283 15.0956 29.3833 15.3663 29.584C15.6369 29.78 15.7886 30.0647 15.8213 30.438H14.8763C14.8483 30.1113 14.6219 29.948 14.1973 29.948C13.8286 29.948 13.6443 30.06 13.6443 30.284C13.6443 30.396 13.7026 30.487 13.8193 30.557C13.9359 30.627 14.1366 30.69 14.4213 30.746C15.0279 30.8673 15.4339 31.0143 15.6393 31.187C15.8259 31.355 15.9193 31.572 15.9193 31.838C15.9193 32.272 15.7606 32.5917 15.4433 32.797C15.1306 32.9977 14.7386 33.098 14.2673 33.098C13.7586 33.098 13.3503 32.9907 13.0423 32.776C12.7389 32.5567 12.5803 32.2393 12.5663 31.824H13.5113C13.5113 32.02 13.5836 32.1717 13.7283 32.279C13.8729 32.3817 14.0549 32.433 14.2743 32.433C14.4563 32.433 14.6103 32.3933 14.7363 32.314C14.8623 32.2347 14.9253 32.1203 14.9253 31.971C14.9253 31.8403 14.8436 31.7377 14.6803 31.663C14.5216 31.5837 14.2393 31.502 13.8333 31.418C13.4133 31.3293 13.1099 31.2103 12.9233 31.061C12.7413 30.907 12.6503 30.7017 12.6503 30.445C12.6503 30.0623 12.7833 29.773 13.0493 29.577C13.3199 29.381 13.7119 29.283 14.2253 29.283ZM17.761 28.296V29.381H18.489V30.046H17.761V31.838C17.761 32.006 17.789 32.118 17.845 32.174C17.901 32.23 18.013 32.258 18.181 32.258C18.3117 32.258 18.4144 32.2487 18.489 32.23V33.007C18.349 33.0303 18.153 33.042 17.901 33.042C17.509 33.042 17.222 32.9767 17.04 32.846C16.858 32.7107 16.767 32.4843 16.767 32.167V30.046H16.165V29.381H16.767V28.296H17.761ZM20.6008 29.283C21.1515 29.283 21.5831 29.472 21.8958 29.85C22.2085 30.2233 22.3648 30.69 22.3648 31.25L22.3578 31.432H19.7468C19.7748 32.0433 20.0688 32.349 20.6288 32.349C20.8155 32.349 20.9835 32.3047 21.1328 32.216C21.2868 32.1227 21.3825 32.0107 21.4198 31.88H22.2948C22.0288 32.692 21.4641 33.098 20.6008 33.098C20.0361 33.098 19.5858 32.923 19.2498 32.573C18.9185 32.2183 18.7528 31.7587 18.7528 31.194C18.7528 30.6433 18.9255 30.1883 19.2708 29.829C19.6161 29.465 20.0595 29.283 20.6008 29.283ZM21.3638 30.802C21.3171 30.5313 21.2308 30.3353 21.1048 30.214C20.9788 30.0927 20.7991 30.032 20.5658 30.032C20.3278 30.032 20.1365 30.0997 19.9918 30.235C19.8518 30.3703 19.7701 30.5593 19.7468 30.802H21.3638ZM25.0613 29.283C25.1267 29.283 25.199 29.2947 25.2783 29.318V30.242C25.171 30.2187 25.052 30.207 24.9213 30.207C24.268 30.207 23.9413 30.5943 23.9413 31.369V33H22.9473V29.381H23.8923V30.053H23.9063C23.9997 29.8243 24.1537 29.64 24.3683 29.5C24.583 29.3553 24.814 29.283 25.0613 29.283ZM27.3494 29.283C27.8254 29.283 28.222 29.4067 28.5394 29.654C28.8567 29.8967 29.027 30.2303 29.0504 30.655H28.0774C28.012 30.2397 27.767 30.032 27.3424 30.032C27.0624 30.032 26.85 30.1463 26.7054 30.375C26.5654 30.6037 26.4954 30.8813 26.4954 31.208C26.4954 31.53 26.563 31.8007 26.6984 32.02C26.8384 32.2393 27.046 32.349 27.3214 32.349C27.7787 32.349 28.0424 32.104 28.1124 31.614H29.0714C29.006 32.09 28.8194 32.4563 28.5114 32.713C28.208 32.9697 27.8137 33.098 27.3284 33.098C26.7777 33.098 26.3344 32.923 25.9984 32.573C25.667 32.223 25.5014 31.7797 25.5014 31.243C25.5014 30.6597 25.667 30.1883 25.9984 29.829C26.3297 29.465 26.78 29.283 27.3494 29.283ZM31.2989 29.283C32.3535 29.283 32.8809 29.626 32.8809 30.312V32.23C32.8809 32.608 32.9229 32.8647 33.0069 33H31.9989C31.9569 32.8693 31.9335 32.7527 31.9289 32.65C31.6442 32.9487 31.2382 33.098 30.7109 33.098C30.3329 33.098 30.0319 33.0047 29.8079 32.818C29.5885 32.6267 29.4789 32.3583 29.4789 32.013C29.4789 31.6817 29.5839 31.425 29.7939 31.243C30.0085 31.061 30.3982 30.9397 30.9629 30.879C31.3175 30.8417 31.5602 30.795 31.6909 30.739C31.8215 30.683 31.8869 30.5803 31.8869 30.431C31.8869 30.2443 31.8309 30.1183 31.7189 30.053C31.6069 29.983 31.4505 29.948 31.2499 29.948C30.8392 29.948 30.6175 30.13 30.5849 30.494H29.5909C29.6095 30.102 29.7705 29.8033 30.0739 29.598C30.3772 29.388 30.7855 29.283 31.2989 29.283ZM30.4729 31.971C30.4729 32.279 30.6759 32.433 31.0819 32.433C31.6185 32.433 31.8869 32.16 31.8869 31.614V31.229C31.8029 31.3037 31.6022 31.362 31.2849 31.404C31.0049 31.4367 30.7995 31.495 30.6689 31.579C30.5382 31.6583 30.4729 31.789 30.4729 31.971ZM35.7664 29.283C35.8317 29.283 35.9041 29.2947 35.9834 29.318V30.242C35.8761 30.2187 35.7571 30.207 35.6264 30.207C34.9731 30.207 34.6464 30.5943 34.6464 31.369V33H33.6524V29.381H34.5974V30.053H34.6114C34.7047 29.8243 34.8587 29.64 35.0734 29.5C35.2881 29.3553 35.5191 29.283 35.7664 29.283ZM39.8464 28.002V33H38.9014V32.538H38.8874C38.6681 32.9113 38.3018 33.098 37.7884 33.098C37.2751 33.098 36.8761 32.9113 36.5914 32.538C36.3068 32.1647 36.1644 31.705 36.1644 31.159C36.1644 30.6317 36.3068 30.1883 36.5914 29.829C36.8761 29.465 37.2681 29.283 37.7674 29.283C37.9914 29.283 38.1991 29.3297 38.3904 29.423C38.5818 29.5163 38.7311 29.6493 38.8384 29.822H38.8524V28.002H39.8464ZM37.1584 31.187C37.1584 31.5043 37.2331 31.7773 37.3824 32.006C37.5318 32.2347 37.7488 32.349 38.0334 32.349C38.3134 32.349 38.5258 32.2463 38.6704 32.041C38.8151 31.8357 38.8874 31.5487 38.8874 31.18C38.8874 30.83 38.8151 30.5523 38.6704 30.347C38.5304 30.137 38.3158 30.032 38.0264 30.032C37.7464 30.032 37.5318 30.137 37.3824 30.347C37.2331 30.5523 37.1584 30.8323 37.1584 31.187Z" fill="white"/>
<path d="M26.5657 2.70801H15.4048V22.625H26.5657V2.70801Z" fill="#FF5F00"/>
<path d="M16.1136 12.6666C16.1119 10.7485 16.5496 8.85508 17.3936 7.12975C18.2377 5.40441 19.4659 3.89239 20.9854 2.70813C19.1037 1.23938 16.8439 0.325983 14.4642 0.0723427C12.0845 -0.181297 9.68093 0.235044 7.52824 1.2738C5.37556 2.31255 3.56059 3.93181 2.29081 5.94647C1.02102 7.96113 0.347656 10.2899 0.347656 12.6666C0.347656 15.0434 1.02102 17.3722 2.29081 19.3868C3.56059 21.4015 5.37556 23.0207 7.52824 24.0595C9.68093 25.0982 12.0845 25.5146 14.4642 25.2609C16.8439 25.0073 19.1037 24.0939 20.9854 22.6252C19.4659 21.4409 18.2377 19.9289 17.3936 18.2035C16.5496 16.4782 16.1119 14.5848 16.1136 12.6666Z" fill="#EB001B"/>
<path d="M41.6225 12.6666C41.6226 15.0433 40.9493 17.3721 39.6795 19.3868C38.4098 21.4014 36.5949 23.0207 34.4423 24.0595C32.2896 25.0982 29.8861 25.5146 27.5064 25.2609C25.1268 25.0073 22.867 24.0939 20.9854 22.6252C22.5035 21.4397 23.7308 19.9274 24.5747 18.2024C25.4186 16.4773 25.8571 14.5845 25.8571 12.6666C25.8571 10.7488 25.4186 8.85597 24.5747 7.13091C23.7308 5.40585 22.5035 3.89358 20.9854 2.70813C22.867 1.23937 25.1268 0.325976 27.5064 0.0723394C29.8861 -0.181297 32.2896 0.235063 34.4423 1.27383C36.5949 2.31259 38.4098 3.93185 39.6795 5.94651C40.9493 7.96117 41.6226 10.2899 41.6225 12.6666Z" fill="#F79E1B"/>
<path d="M40.4055 20.5161V20.1083H40.5711V20.0252H40.1494V20.1083H40.3151V20.5161H40.4055ZM41.2242 20.5161V20.0244H41.0949L40.9462 20.3626L40.7975 20.0244H40.6682V20.5161H40.7595V20.1452L40.8989 20.4649H40.9935L41.133 20.1444V20.5161H41.2242Z" fill="#F79E1B"/>
</svg>
