<svg width="41" height="13" viewBox="0 0 41 13" fill="none" xmlns="http://www.w3.org/2000/svg">
<path d="M17.6207 12.4188H14.3267L16.387 0.22168H19.6808L17.6207 12.4188Z" fill="white"/>
<path d="M29.5619 0.519281C28.9122 0.272489 27.8816 0 26.6074 0C23.3544 0 21.0637 1.6608 21.0497 4.03524C21.0226 5.7871 22.6897 6.76013 23.9366 7.34425C25.211 7.94114 25.6442 8.33073 25.6442 8.86277C25.6313 9.67989 24.6144 10.0566 23.666 10.0566C22.3509 10.0566 21.6462 9.86236 20.5754 9.40775L20.1416 9.21287L19.6807 11.9509C20.4532 12.2879 21.8766 12.5869 23.3544 12.6C26.8108 12.6 29.0609 10.9649 29.0876 8.43455C29.1007 7.04607 28.2205 5.98216 26.3226 5.11278C25.1705 4.5547 24.4649 4.17839 24.4649 3.60737C24.4784 3.08826 25.0617 2.55656 26.3622 2.55656C27.4331 2.53052 28.2199 2.77697 28.816 3.02359L29.1139 3.15311L29.5619 0.519281Z" fill="white"/>
<path d="M33.9402 8.0978C34.2114 7.39709 35.2553 4.68514 35.2553 4.68514C35.2416 4.71119 35.526 3.9715 35.6887 3.51741L35.9189 4.56839C35.9189 4.56839 36.5427 7.48798 36.6781 8.0978C36.1633 8.0978 34.5908 8.0978 33.9402 8.0978ZM38.0062 0.22168H35.4583C34.6726 0.22168 34.0756 0.442085 33.7366 1.23368L28.8438 12.4186H32.3001C32.3001 12.4186 32.8691 10.9132 32.9914 10.589C33.3706 10.589 36.7329 10.589 37.2207 10.589C37.3153 11.0172 37.6137 12.4186 37.6137 12.4186H40.6637L38.0062 0.22168Z" fill="white"/>
<path d="M11.5756 0.22168L8.34962 8.53896L7.9971 6.85212C7.40069 4.90572 5.53022 2.791 3.44287 1.73951L6.39773 12.4059H9.88108L15.0587 0.22168H11.5756Z" fill="white"/>
<path d="M5.35401 0.22168H0.0542189L0 0.468126C4.13417 1.4803 6.87214 3.92011 7.99706 6.85263L6.84494 1.24696C6.65527 0.467954 6.07237 0.247376 5.35401 0.22168Z" fill="#FAA61A"/>
</svg>
